<?xml version="1.0" encoding="utf-8"?>
<!-- Generator: Adobe Illustrator 24.0.1, SVG Export Plug-In . SVG Version: 6.00 Build 0)  -->
<svg version="1.1" id="Layer_1" xmlns="http://www.w3.org/2000/svg" xmlns:xlink="http://www.w3.org/1999/xlink" x="0px" y="0px"
	 viewBox="0 0 300 300" style="enable-background:new 0 0 300 300;" xml:space="preserve">
<style type="text/css">
	.st0{fill:#808080;}
</style>
<g>
	<path class="st0" d="M289.67,178.5h-19.33c-2.67,0-4.83-2.16-4.83-4.83s2.16-4.83,4.83-4.83h19.33c2.67,0,4.83,2.16,4.83,4.83
		S292.34,178.5,289.67,178.5z"/>
	<path class="st0" d="M270.33,207.5h-9.67c-2.67,0-4.83-2.16-4.83-4.83s2.16-4.83,4.83-4.83h9.67c8,0,14.5-6.5,14.5-14.5v-21.82
		c0-6.46-2.51-12.52-7.08-17.09l-32.9-32.9c-6.68-6.68-15.56-10.36-25-10.36h-22.02v96.67h14.5c2.67,0,4.83,2.16,4.83,4.83
		s-2.16,4.83-4.83,4.83H193c-2.67,0-4.83-2.16-4.83-4.83V96.33c0-2.67,2.16-4.83,4.83-4.83h26.85c12.03,0,23.34,4.68,31.84,13.19
		l32.9,32.9c6.39,6.39,9.91,14.89,9.91,23.92v21.82C294.5,196.66,283.66,207.5,270.33,207.5z"/>
	<path class="st0" d="M193,207.5h-48.33c-2.67,0-4.83-2.16-4.83-4.83s2.16-4.83,4.83-4.83h43.5V96.33
		c0-13.33-10.84-24.17-24.17-24.17H86.67c-13.33,0-24.17,10.84-24.17,24.17v77.33c0,13.33,10.84,24.17,24.17,24.17h9.67
		c2.67,0,4.83,2.16,4.83,4.83s-2.16,4.83-4.83,4.83h-9.67c-18.66,0-33.83-15.18-33.83-33.83V96.33c0-18.66,15.18-33.83,33.83-33.83
		H164c18.66,0,33.83,15.18,33.83,33.83v106.33C197.83,205.34,195.67,207.5,193,207.5z"/>
	<path class="st0" d="M283.87,149.5H222c-8,0-14.5-6.5-14.5-14.5v-9.67c0-8,6.5-14.5,14.5-14.5h33.83c2.67,0,4.83,2.16,4.83,4.83
		s-2.16,4.83-4.83,4.83H222c-2.66,0-4.83,2.17-4.83,4.83V135c0,2.66,2.17,4.83,4.83,4.83h61.87c2.67,0,4.83,2.16,4.83,4.83
		S286.54,149.5,283.87,149.5z"/>
	<path class="st0" d="M120.5,236.5c-15.99,0-29-13.01-29-29s13.01-29,29-29s29,13.01,29,29S136.49,236.5,120.5,236.5z M120.5,188.17
		c-10.66,0-19.33,8.67-19.33,19.33s8.67,19.33,19.33,19.33s19.33-8.67,19.33-19.33S131.16,188.17,120.5,188.17z"/>
	<path class="st0" d="M120.5,217.17c-5.33,0-9.67-4.34-9.67-9.67s4.34-9.67,9.67-9.67s9.67,4.34,9.67,9.67
		S125.83,217.17,120.5,217.17z M120.5,207.5L120.5,207.5L120.5,207.5z M120.5,207.5L120.5,207.5L120.5,207.5z M120.5,207.5
		L120.5,207.5L120.5,207.5z M120.5,207.5L120.5,207.5L120.5,207.5z M120.5,207.5L120.5,207.5L120.5,207.5z M120.5,207.5L120.5,207.5
		L120.5,207.5z M120.5,207.49L120.5,207.49L120.5,207.49z M120.5,207.49L120.5,207.49L120.5,207.49z"/>
	<path class="st0" d="M236.5,217.17c-5.33,0-9.67-4.34-9.67-9.67s4.34-9.67,9.67-9.67s9.67,4.34,9.67,9.67
		S241.83,217.17,236.5,217.17z M236.5,207.5L236.5,207.5L236.5,207.5z M236.5,207.5L236.5,207.5L236.5,207.5z M236.5,207.5
		L236.5,207.5L236.5,207.5z M236.5,207.5L236.5,207.5L236.5,207.5z M236.5,207.5L236.5,207.5L236.5,207.5z M236.5,207.5L236.5,207.5
		L236.5,207.5z M236.5,207.49L236.5,207.49L236.5,207.49z M236.5,207.49L236.5,207.49L236.5,207.49z"/>
	<path class="st0" d="M236.5,236.5c-15.99,0-29-13.01-29-29s13.01-29,29-29s29,13.01,29,29S252.49,236.5,236.5,236.5z M236.5,188.17
		c-10.66,0-19.33,8.67-19.33,19.33s8.67,19.33,19.33,19.33s19.33-8.67,19.33-19.33S247.16,188.17,236.5,188.17z"/>
	<path class="st0" d="M43.17,168.83h-4.83c-2.67,0-4.83-2.16-4.83-4.83s2.16-4.83,4.83-4.83h4.83c2.67,0,4.83,2.16,4.83,4.83
		S45.84,168.83,43.17,168.83z"/>
	<path class="st0" d="M43.17,149.5h-14.5c-2.67,0-4.83-2.16-4.83-4.83s2.16-4.83,4.83-4.83h14.5c2.67,0,4.83,2.16,4.83,4.83
		S45.84,149.5,43.17,149.5z"/>
	<path class="st0" d="M43.17,110.83H9.33c-2.67,0-4.83-2.16-4.83-4.83s2.16-4.83,4.83-4.83h33.83c2.67,0,4.83,2.16,4.83,4.83
		S45.84,110.83,43.17,110.83z"/>
	<path class="st0" d="M43.17,130.17H19c-2.67,0-4.83-2.16-4.83-4.83c0-2.67,2.16-4.83,4.83-4.83h24.17c2.67,0,4.83,2.16,4.83,4.83
		C48,128,45.84,130.17,43.17,130.17z"/>
</g>
</svg>
