<?xml version="1.0" encoding="utf-8"?>
<!-- Generator: Adobe Illustrator 24.0.1, SVG Export Plug-In . SVG Version: 6.00 Build 0)  -->
<svg version="1.1" id="Layer_1" xmlns="http://www.w3.org/2000/svg" xmlns:xlink="http://www.w3.org/1999/xlink" x="0px" y="0px"
	 viewBox="0 0 300 300" style="enable-background:new 0 0 300 300;" xml:space="preserve">
<style type="text/css">
	.st0{fill:#808080;}
</style>
<g>
	<path class="st0" d="M192.14,28.58c-2.01-1.96-5.52-1.96-7.52,0c-1,0.99-1.57,2.35-1.57,3.75c0,1.38,0.57,2.74,1.57,3.73
		s2.36,1.56,3.75,1.56c1.38,0,2.75-0.57,3.78-1.56c0.98-0.98,1.54-2.34,1.54-3.73C193.69,30.93,193.13,29.56,192.14,28.58z"/>
	<path class="st0" d="M202.6,41.65c-0.96-0.93-2.33-1.47-3.76-1.47h-0.01c-1.44,0-2.8,0.55-3.75,1.5c-0.99,0.99-1.56,2.35-1.56,3.73
		c0,1.37,0.57,2.73,1.57,3.75c0.98,0.98,2.35,1.54,3.75,1.54c1.41,0,2.75-0.54,3.77-1.56c0.98-0.99,1.54-2.36,1.54-3.74
		S203.59,42.66,202.6,41.65z"/>
	<path class="st0" d="M180.81,48.92c-2.01-1.98-5.53-1.98-7.52,0c-1,0.99-1.57,2.35-1.57,3.73c0,1.41,0.56,2.75,1.57,3.75
		c0.98,0.98,2.35,1.54,3.75,1.54c1.41,0,2.75-0.54,3.78-1.55c0.99-1.01,1.54-2.34,1.54-3.74C182.36,51.26,181.8,49.9,180.81,48.92z"
		/>
	<path class="st0" d="M182.84,60.87c-0.98,0.98-1.54,2.34-1.54,3.75c0,1.4,0.56,2.75,1.55,3.74c1.02,0.99,2.39,1.55,3.76,1.55
		c1.38,0,2.75-0.57,3.75-1.56s1.57-2.35,1.57-3.73c0-1.39-0.58-2.76-1.57-3.75C188.37,58.89,184.86,58.89,182.84,60.87z"/>
	<path class="st0" d="M205.56,54.76c-1,0.99-1.57,2.35-1.57,3.73c0,1.39,0.57,2.76,1.57,3.75c0.99,0.99,2.36,1.56,3.75,1.56
		c1.38,0,2.75-0.56,3.78-1.57c0.99-1.01,1.54-2.34,1.54-3.74c0-1.39-0.56-2.75-1.55-3.73C211.07,52.78,207.55,52.78,205.56,54.76z"
		/>
	<path class="st0" d="M192,85.88c11.98,0,22.62-3.19,29.97-8.99c9.54-7.54,12.34-19.48,7.67-32.76c-1-2.83-2.38-5.74-4.11-8.67
		l18.78,0.56h0.17c2.89,0,5.22-2.26,5.31-5.13c0.05-1.41-0.47-2.75-1.44-3.78c-0.97-1.03-2.29-1.62-3.71-1.66l-11.53-0.35
		l13.2-10.43c1.11-0.88,1.81-2.14,1.97-3.54c0.16-1.4-0.24-2.79-1.12-3.89c-0.89-1.1-2.15-1.8-3.56-1.96
		c-1.41-0.16-2.8,0.24-3.91,1.12l-13.72,10.83l1.88-11.07c0.24-1.39-0.09-2.79-0.91-3.94c-0.82-1.15-2.05-1.92-3.45-2.15
		c-2.9-0.48-5.64,1.47-6.13,4.34l-2.94,17.32c-8.19-7.54-17.25-11.68-25.66-11.68c-5.97,0-11.45,2.15-15.83,6.22
		c-7.49,6.94-13.15,18.24-15.55,30.99c-2.26,12.05-0.98,22.9,3.34,28.32C166.41,82.69,180.53,85.88,192,85.88z M215.34,68.61
		c-5.46,4.32-13.75,6.7-23.34,6.7c-11.06,0-20.53-3.28-22.95-6.31c-5-6.26-2.33-32.52,11.13-45.01c2.42-2.24,5.3-3.37,8.58-3.37
		c11.18,0,25.87,12.86,30.83,26.99C221.81,53.91,222.86,62.67,215.34,68.61z"/>
	<path class="st0" d="M292.88,101.63c-15.99-12.01-33.33-22.28-51.52-30.53c-1.29-0.59-2.73-0.64-4.06-0.15
		c-1.34,0.49-2.4,1.47-2.99,2.76c-0.59,1.28-0.64,2.72-0.14,4.04s1.49,2.38,2.78,2.96c13.65,6.18,26.9,13.63,39.42,22.14
		c-30.33,5.75-86.64,16.61-136.46,26.22c-46.75,9.02-84.78,16.35-109.21,21.01l115.46-92.24c0.61,0.04,1.22,0.08,1.83,0.13
		c1.41,0.11,2.78-0.33,3.86-1.25c1.08-0.92,1.74-2.21,1.85-3.62c0.23-2.91-1.97-5.46-4.89-5.68c-1.34-0.11-2.69-0.2-4.03-0.28
		c-1.32-0.09-2.62,0.32-3.67,1.16L12.14,151.34c-4.08,3.26-7.15,9.63-7.15,14.83v123.09c0,3.32,1.4,6.37,3.84,8.37
		c1.87,1.53,4.28,2.37,6.8,2.37c0.74,0,1.48-0.07,2.2-0.21l266.34-50.81c6.07-1.16,10.82-6.88,10.82-13.02V105.85
		C294.99,104.2,294.2,102.62,292.88,101.63z M141.95,139.44l5.04-0.97C201.28,128,257.4,117.18,284.37,112.1v63.04L15.64,226.79
		v-60.62c0-0.7,0.2-1.6,0.57-2.58c20.93-3.93,71.73-13.73,125.5-24.1L141.95,139.44z M15.64,258.51l190.09-36.54
		c2.88-0.55,4.77-3.33,4.21-6.19c-0.55-2.85-3.35-4.73-6.23-4.19L15.64,247.74v-10.19l268.72-51.65v10.18l-57.94,11.14
		c-2.88,0.55-4.77,3.33-4.21,6.19c0.54,2.81,3.31,4.74,6.23,4.19l55.92-10.75v29.09c0,1.1-1.1,2.43-2.19,2.64L15.82,289.41
		c-0.07,0.02-0.13,0.02-0.17,0.03c0-0.05-0.01-0.11-0.01-0.18V258.51z"/>
	<path class="st0" d="M197.41,109.04c2.82-5.21-1.84-10.11-10.85-16.8c-2.35-1.74-5.69-1.26-7.45,1.07
		c-1.48,1.97-1.37,4.64,0.12,6.48c-4.76-1.37-10.67-3.31-17.62-5.8c-27.05-9.68-36.71-10.65-39.73-4
		c-3.28,7.22,8.07,15.55,18.62,21.45c-4.2-0.62-10.3-1.89-18.92-4.41c-19.65-5.74-30.49-5.03-33.11,2.18
		c-1.4,3.85,0.4,8.1,4.84,11.78c-2.59-0.33-5.72-0.89-9.01-1.81c-2.82-0.78-5.77,0.86-6.56,3.66c-0.39,1.36-0.21,2.79,0.48,4.02
		c0.7,1.23,1.83,2.12,3.2,2.5c0.1,0.02,10.42,2.69,19.3,2.69c7.27,0,11.59-1.79,12.86-5.32c2.25-6.3-5.49-9.63-8.03-10.72
		c-1.82-0.79-3.19-1.58-4.21-2.26c3.07,0.11,8.4,0.84,17.24,3.42c30.63,8.95,36.84,5.22,38.87,0.38
		c3.04-7.24-7.02-12.75-10.81-14.82c-3.24-1.77-5.9-3.5-7.91-4.92c5.03,1.29,11.49,3.34,19.29,6.13
		C188.43,114.82,194.54,114.35,197.41,109.04z"/>
	<path class="st0" d="M42.63,181.96l-7.84-6.27c-2.29-1.83-5.64-1.47-7.48,0.8c-0.9,1.1-1.3,2.48-1.15,3.88
		c0.15,1.4,0.84,2.66,1.95,3.55l7.84,6.27c0.94,0.76,2.12,1.17,3.33,1.17c1.62,0,3.13-0.72,4.15-1.97c0.9-1.1,1.3-2.48,1.15-3.88
		C44.43,184.11,43.74,182.85,42.63,181.96z"/>
	<path class="st0" d="M65.87,195.85c-1.35-0.43-2.79-0.31-4.05,0.34l-10.77,5.52c-1.26,0.65-2.2,1.74-2.63,3.09
		c-0.43,1.34-0.31,2.78,0.34,4.03c0.92,1.76,2.73,2.86,4.73,2.86c0.85,0,1.67-0.2,2.43-0.59l10.77-5.52
		c1.26-0.65,2.2-1.74,2.63-3.09c0.43-1.34,0.31-2.78-0.34-4.03C68.33,197.21,67.22,196.28,65.87,195.85z"/>
	<path class="st0" d="M75.49,163.63c-2.74-1.05-5.83,0.3-6.89,3.01l-4.41,11.25c-0.51,1.31-0.48,2.75,0.09,4.04
		c0.57,1.29,1.62,2.29,2.94,2.8c0.62,0.24,1.27,0.36,1.93,0.36c2.21,0,4.15-1.32,4.96-3.37l4.41-11.25
		c0.51-1.31,0.48-2.75-0.09-4.04S76.81,164.14,75.49,163.63z"/>
	<path class="st0" d="M94.61,185.16c-2.93,0-5.32,2.38-5.32,5.29v10.43c0,2.92,2.39,5.29,5.32,5.29s5.32-2.37,5.32-5.29v-10.43
		C99.93,187.53,97.54,185.16,94.61,185.16z"/>
	<path class="st0" d="M122.75,169.98c0.38-1.36,0.21-2.79-0.49-4.02c-0.69-1.23-1.83-2.12-3.2-2.5l-12.24-3.41
		c-1.37-0.38-2.8-0.21-4.04,0.48c-1.24,0.69-2.14,1.82-2.52,3.18c-0.38,1.36-0.21,2.79,0.49,4.02c0.69,1.23,1.83,2.12,3.2,2.5
		l12.24,3.41c0.47,0.13,0.96,0.2,1.44,0.2C120,173.84,122.11,172.25,122.75,169.98z"/>
	<path class="st0" d="M140.84,183.75c-1.14-0.83-2.54-1.17-3.93-0.95l-16.16,2.43c-2.9,0.44-4.9,3.14-4.46,6.02
		c0.39,2.56,2.65,4.49,5.25,4.49c0.26,0,0.53-0.02,0.8-0.06l16.16-2.43c2.9-0.44,4.9-3.14,4.46-6.02
		C142.75,185.83,141.99,184.59,140.84,183.75z"/>
	<path class="st0" d="M159.77,153.94l7.83,6.27c0.94,0.76,2.12,1.17,3.33,1.17c1.62,0,3.13-0.72,4.15-1.97
		c0.89-1.1,1.3-2.48,1.15-3.88c-0.15-1.4-0.84-2.66-1.95-3.55l-7.83-6.27c-2.28-1.83-5.64-1.47-7.48,0.8
		c-0.9,1.1-1.3,2.48-1.15,3.88C157.97,151.79,158.66,153.05,159.77,153.94z"/>
	<path class="st0" d="M185.14,181.71c0.84,0,1.68-0.2,2.43-0.58l10.77-5.52c1.26-0.65,2.2-1.74,2.63-3.09
		c0.43-1.34,0.31-2.78-0.34-4.03c-0.65-1.26-1.75-2.19-3.11-2.62c-1.35-0.43-2.79-0.31-4.05,0.34l-10.77,5.52
		c-1.26,0.65-2.2,1.74-2.63,3.09c-0.43,1.34-0.31,2.78,0.34,4.03C181.33,180.61,183.14,181.71,185.14,181.71z"/>
	<path class="st0" d="M198.87,154.75c0.62,0.24,1.27,0.36,1.93,0.36c2.21,0,4.16-1.32,4.96-3.37l4.41-11.25
		c0.51-1.31,0.48-2.75-0.09-4.04c-0.57-1.3-1.62-2.29-2.94-2.8c-1.32-0.51-2.77-0.48-4.07,0.09c-1.3,0.57-2.3,1.6-2.82,2.92
		l-4.41,11.25c-0.51,1.31-0.48,2.75,0.09,4.04C196.5,153.25,197.55,154.24,198.87,154.75z"/>
	<path class="st0" d="M226.27,176.19c2.93,0,5.31-2.37,5.32-5.29v-10.43c0-2.92-2.39-5.29-5.32-5.29s-5.32,2.38-5.32,5.29v10.43
		C220.95,173.82,223.34,176.19,226.27,176.19z"/>
	<path class="st0" d="M235.6,140.26l12.24,3.41c0.47,0.13,0.96,0.2,1.44,0.2c2.38,0,4.48-1.59,5.12-3.86
		c0.38-1.36,0.21-2.79-0.49-4.02c-0.69-1.23-1.83-2.12-3.2-2.5l-12.24-3.41c-1.36-0.38-2.8-0.21-4.04,0.48s-2.14,1.82-2.52,3.18
		c-0.38,1.36-0.21,2.79,0.49,4.02C233.09,138.99,234.23,139.88,235.6,140.26z"/>
	<path class="st0" d="M247.94,161.27c0.39,2.56,2.65,4.49,5.25,4.49c0.27,0,0.54-0.02,0.81-0.05l16.16-2.43
		c2.9-0.44,4.9-3.14,4.46-6.02c-0.22-1.41-0.97-2.64-2.12-3.48c-1.15-0.84-2.55-1.18-3.94-0.96l-16.16,2.43
		C249.5,155.69,247.5,158.39,247.94,161.27z"/>
	<path class="st0" d="M149.14,176.63c0.93,1.74,2.73,2.83,4.72,2.83c0.86,0,1.71-0.21,2.45-0.6c1.26-0.65,2.19-1.75,2.61-3.1
		c0.43-1.35,0.3-2.78-0.36-4.03l-3.86-7.33c-0.65-1.25-1.76-2.17-3.12-2.59c-1.35-0.42-2.79-0.29-4.05,0.36
		c-1.26,0.65-2.19,1.75-2.61,3.1c-0.43,1.35-0.3,2.78,0.36,4.03L149.14,176.63z"/>
</g>
</svg>
