<?xml version="1.0" encoding="utf-8"?>
<!-- Generator: Adobe Illustrator 24.0.1, SVG Export Plug-In . SVG Version: 6.00 Build 0)  -->
<svg version="1.1" id="Layer_1" xmlns="http://www.w3.org/2000/svg" xmlns:xlink="http://www.w3.org/1999/xlink" x="0px" y="0px"
	 viewBox="0 0 300 300" style="enable-background:new 0 0 300 300;" xml:space="preserve">
<style type="text/css">
	.st0{fill:#808080;}
	.st1{fill-rule:evenodd;clip-rule:evenodd;fill:none;stroke:#808080;stroke-width:10;stroke-miterlimit:10;}
</style>
<g>
	<path class="st0" d="M213.46,54c-6.95,0-12.52-5.55-17.9-10.92c-4.02-4.01-8.58-8.56-11.99-8.56c-5.97,0-11.67,4.97-17.18,9.78
		c-5.62,4.91-10.93,9.54-17.27,9.54c-6.45,0-12.84-5.46-19.6-11.24c-3.65-3.12-9.76-8.34-12.07-8.34c-3.37,0-8.27,4.53-12.59,8.53
		C98.91,48.3,92.76,54,85.47,54c-11.58,0-21-10.14-21-22.6v-4.53C64.47,12.05,76.74,0,91.83,0H207.1
		c15.09,0,27.37,12.05,27.37,26.86v4.53C234.47,43.86,225.05,54,213.46,54z M183.57,24.52c7.54,0,13.66,6.1,19.05,11.48
		c3.76,3.75,8.02,8,10.84,8c6.07,0,11.01-5.65,11.01-12.6v-4.53c0-9.3-7.79-16.86-17.37-16.86H91.83c-9.57,0-17.36,7.56-17.36,16.86
		v4.53c0,6.95,4.93,12.6,11,12.6c3.38,0,8.28-4.54,12.61-8.54c5.95-5.5,12.1-11.19,19.38-11.19c6,0,12.1,5.22,18.57,10.74
		c4.12,3.52,10.34,8.84,13.1,8.84c2.59,0,6.9-3.76,10.7-7.08C166.07,31.31,173.85,24.52,183.57,24.52z"/>
	<path class="st0" d="M244.26,144.01c-7.23,0-13.31-5.71-19.18-11.23c-4.16-3.91-8.86-8.33-12.12-8.5c-3.26,0.17-7.97,4.6-12.12,8.5
		c-5.87,5.52-11.94,11.22-19.16,11.22h-0.38c-7.23,0-13.3-5.71-19.17-11.22c-4.16-3.91-8.86-8.33-12.13-8.5
		c-3.26,0.17-7.96,4.59-12.12,8.5c-5.87,5.52-11.94,11.23-19.18,11.23h-0.37c-7.23,0-13.3-5.71-19.17-11.22
		c-4.16-3.91-8.86-8.33-12.12-8.5c-3.27,0.17-7.97,4.6-12.13,8.51c-5.87,5.52-11.93,11.22-19.16,11.22
		c-11.44,0-20.74-10.14-20.74-22.6v-4.53C35,102.06,47.11,90,62,90h176c14.89,0,27,12.06,27,26.87l0,4.53
		C265,133.87,255.7,144.01,244.26,144.01z M212.96,114.28c0.04,0,0.08,0,0.11,0c7.1,0.16,13.08,5.78,18.86,11.21
		c4.25,3.99,9.06,8.51,12.33,8.51c5.82,0,10.74-5.77,10.74-12.6l0-4.53c0-9.31-7.63-16.88-17-16.88H62c-9.37,0-17,7.57-17,16.87
		v4.53c0,6.95,4.82,12.6,10.74,12.6c3.26,0,8.07-4.52,12.31-8.51c5.78-5.44,11.76-11.06,18.87-11.22c0.08,0,0.15,0,0.23,0
		c7.1,0.16,13.08,5.78,18.86,11.22c4.25,3.99,9.06,8.51,12.32,8.51h0.37c3.27,0,8.08-4.52,12.33-8.51
		c5.78-5.43,11.76-11.05,18.85-11.21c0.08,0,0.15,0,0.23,0c7.1,0.16,13.08,5.78,18.86,11.22c4.24,3.99,9.05,8.51,12.32,8.51h0.38
		c3.26,0,8.07-4.52,12.31-8.51c5.78-5.44,11.76-11.06,18.86-11.22C212.89,114.28,212.92,114.28,212.96,114.28z"/>
	<path class="st0" d="M274.45,244.3c-7.18,0-13.19-5.71-19-11.24c-4.18-3.98-8.93-8.49-12.11-8.49c-3.18,0-7.92,4.51-12.11,8.49
		c-5.81,5.53-11.82,11.24-19.01,11.24s-13.19-5.71-19-11.24c-4.18-3.98-8.92-8.49-12.11-8.49c-3.19,0-7.93,4.51-12.12,8.49
		c-5.81,5.53-11.82,11.24-19,11.24c-7.18,0-13.19-5.71-19-11.24c-4.18-3.98-8.93-8.49-12.12-8.49c-3.18,0-7.92,4.51-12.1,8.49
		c-5.81,5.53-11.81,11.24-18.99,11.24c-7.19,0-13.2-5.72-19.01-11.24c-4.18-3.98-8.92-8.49-12.11-8.49c-3.19,0-7.93,4.51-12.11,8.49
		c-5.81,5.53-11.81,11.24-19,11.24C14.22,244.3,5,234.16,5,221.7v-4.82C5,202.06,17,190,31.75,190h236.51
		C283,190,295,202.06,295,216.87v4.82C295,234.16,285.78,244.3,274.45,244.3z M243.33,214.57c7.18,0,13.19,5.71,19,11.24
		c4.18,3.98,8.93,8.49,12.11,8.49c5.72,0,10.55-5.77,10.55-12.6v-4.82c0-9.3-7.51-16.87-16.75-16.87H31.75
		C22.51,200,15,207.57,15,216.87v4.82c0,6.95,4.74,12.6,10.56,12.6c3.19,0,7.92-4.51,12.1-8.49c5.81-5.53,11.82-11.24,19-11.24
		c7.18,0,13.19,5.71,19,11.24c4.18,3.98,8.93,8.49,12.12,8.49c3.18,0,7.92-4.51,12.1-8.49c5.81-5.53,11.81-11.24,18.99-11.24
		c7.19,0,13.2,5.72,19.01,11.24c4.18,3.98,8.92,8.49,12.11,8.49c3.18,0,7.92-4.51,12.11-8.49c5.81-5.53,11.82-11.24,19.01-11.24
		s13.19,5.72,19,11.24c4.18,3.98,8.92,8.49,12.1,8.49c3.19,0,7.93-4.51,12.12-8.49C230.15,220.28,236.15,214.57,243.33,214.57z"/>
	<path class="st1" d="M274.59,238.63"/>
	<path class="st0" d="M274.59,238.63"/>
	<path class="st0" d="M209.47,99.49c-2.76,0-5-2.24-5-5V48.15c0-2.76,2.24-5,5-5s5,2.24,5,5v46.35
		C214.47,97.26,212.23,99.49,209.47,99.49z"/>
	<path class="st0" d="M89.47,99.49c-2.76,0-5-2.24-5-5V48.15c0-2.76,2.24-5,5-5s5,2.24,5,5v46.34
		C94.47,97.26,92.23,99.49,89.47,99.49z"/>
	<path class="st0" d="M59.47,198.93c-2.76,0-5-2.24-5-5v-55.51c0-2.76,2.24-5,5-5s5,2.24,5,5v55.51
		C64.47,196.69,62.23,198.93,59.47,198.93z"/>
	<path class="st0" d="M239.47,198.93c-2.76,0-5-2.24-5-5v-55.52c0-2.76,2.24-5,5-5s5,2.24,5,5v55.52
		C244.47,196.69,242.23,198.93,239.47,198.93z"/>
	<path class="st0" d="M254.47,300h-210c-11.03,0-20-8.97-20-20v-41.33c0-2.76,2.24-5,5-5s5,2.24,5,5V280c0,5.51,4.49,10,10,10h210
		c5.51,0,10-4.49,10-10v-41.37c0-2.76,2.24-5,5-5s5,2.24,5,5V280C274.47,291.03,265.5,300,254.47,300z"/>
	<g>
		<path class="st0" d="M94.72,70h-0.25c-2.76,0-5-2.24-5-5s2.24-5,5-5h0.25c2.76,0,5,2.24,5,5S97.48,70,94.72,70z"/>
		<path class="st0" d="M177.25,70h-0.54c-2.76,0-5-2.24-5-5s2.24-5,5-5h0.54c2.76,0,5,2.24,5,5S180.01,70,177.25,70z M149.74,70
			h-0.54c-2.76,0-5-2.24-5-5s2.24-5,5-5h0.54c2.76,0,5,2.24,5,5S152.5,70,149.74,70z M122.23,70h-0.54c-2.76,0-5-2.24-5-5
			s2.24-5,5-5h0.54c2.76,0,5,2.24,5,5S124.99,70,122.23,70z"/>
		<path class="st0" d="M204.47,70h-0.25c-2.76,0-5-2.24-5-5s2.24-5,5-5h0.25c2.76,0,5,2.24,5,5S207.23,70,204.47,70z"/>
	</g>
	<g>
		<path class="st0" d="M64.72,170h-0.25c-2.76,0-5-2.24-5-5s2.24-5,5-5h0.25c2.76,0,5,2.24,5,5S67.48,170,64.72,170z"/>
		<path class="st0" d="M210.41,170h-0.48c-2.76,0-5-2.24-5-5s2.24-5,5-5h0.48c2.76,0,5,2.24,5,5S213.17,170,210.41,170z M186.13,170
			h-0.48c-2.76,0-5-2.24-5-5s2.24-5,5-5h0.48c2.76,0,5,2.24,5,5S188.89,170,186.13,170z M161.85,170h-0.48c-2.76,0-5-2.24-5-5
			s2.24-5,5-5h0.48c2.76,0,5,2.24,5,5S164.61,170,161.85,170z M137.57,170h-0.48c-2.76,0-5-2.24-5-5s2.24-5,5-5h0.48
			c2.76,0,5,2.24,5,5S140.33,170,137.57,170z M113.28,170h-0.48c-2.76,0-5-2.24-5-5s2.24-5,5-5h0.48c2.76,0,5,2.24,5,5
			S116.05,170,113.28,170z M89,170h-0.48c-2.76,0-5-2.24-5-5s2.24-5,5-5H89c2.76,0,5,2.24,5,5S91.76,170,89,170z"/>
		<path class="st0" d="M234.47,170h-0.25c-2.76,0-5-2.24-5-5s2.24-5,5-5h0.25c2.76,0,5,2.24,5,5S237.23,170,234.47,170z"/>
	</g>
	<g>
		<path class="st0" d="M34.72,270h-0.25c-2.76,0-5-2.24-5-5s2.24-5,5-5h0.25c2.76,0,5,2.24,5,5S37.48,270,34.72,270z"/>
		<path class="st0" d="M239.17,270h-0.5c-2.76,0-5-2.24-5-5s2.24-5,5-5h0.5c2.76,0,5,2.24,5,5S241.93,270,239.17,270z M213.61,270
			h-0.5c-2.76,0-5-2.24-5-5s2.24-5,5-5h0.5c2.76,0,5,2.24,5,5S216.37,270,213.61,270z M188.05,270h-0.5c-2.76,0-5-2.24-5-5
			s2.24-5,5-5h0.5c2.76,0,5,2.24,5,5S190.82,270,188.05,270z M162.5,270H162c-2.76,0-5-2.24-5-5s2.24-5,5-5h0.5c2.76,0,5,2.24,5,5
			S165.26,270,162.5,270z M136.94,270h-0.5c-2.76,0-5-2.24-5-5s2.24-5,5-5h0.5c2.76,0,5,2.24,5,5S139.7,270,136.94,270z M111.39,270
			h-0.5c-2.76,0-5-2.24-5-5s2.24-5,5-5h0.5c2.76,0,5,2.24,5,5S114.15,270,111.39,270z M85.83,270h-0.5c-2.76,0-5-2.24-5-5
			s2.24-5,5-5h0.5c2.76,0,5,2.24,5,5S88.59,270,85.83,270z M60.27,270h-0.5c-2.76,0-5-2.24-5-5s2.24-5,5-5h0.5c2.76,0,5,2.24,5,5
			S63.04,270,60.27,270z"/>
		<path class="st0" d="M264.47,270h-0.25c-2.76,0-5-2.24-5-5s2.24-5,5-5h0.25c2.76,0,5,2.24,5,5S267.23,270,264.47,270z"/>
	</g>
</g>
</svg>
