<?xml version="1.0" encoding="utf-8"?>
<!-- Generator: Adobe Illustrator 24.0.1, SVG Export Plug-In . SVG Version: 6.00 Build 0)  -->
<svg version="1.1" id="Layer_1" xmlns="http://www.w3.org/2000/svg" xmlns:xlink="http://www.w3.org/1999/xlink" x="0px" y="0px"
	 viewBox="0 0 300 300" style="enable-background:new 0 0 300 300;" xml:space="preserve">
<style type="text/css">
	.st0{fill:#808080;}
</style>
<g>
	<path class="st0" d="M172.43,48.31c-11.94,0-21.65-9.71-21.65-21.65S160.49,5,172.43,5c11.94,0,21.65,9.71,21.65,21.65
		S184.37,48.31,172.43,48.31z M172.43,14.67c-6.61,0-11.99,5.38-11.99,11.99s5.38,11.99,11.99,11.99c6.61,0,11.99-5.38,11.99-11.99
		S179.04,14.67,172.43,14.67z"/>
	<path class="st0" d="M127.57,48.31c-11.94,0-21.65-9.71-21.65-21.65S115.63,5,127.57,5s21.65,9.71,21.65,21.65
		S139.51,48.31,127.57,48.31z M127.57,14.67c-6.61,0-11.99,5.38-11.99,11.99s5.38,11.99,11.99,11.99s11.99-5.38,11.99-11.99
		S134.18,14.67,127.57,14.67z"/>
	<path class="st0" d="M189.25,295h-78.49C52.44,295,5,247.56,5,189.25V181c0-17.35,9.24-33.68,24.12-42.61l23.4-14.04
		c5.27-3.16,8.54-8.94,8.54-15.09V88.33c0-8.85,7.2-16.05,16.05-16.05h145.77c8.85,0,16.05,7.2,16.05,16.05v20.94
		c0,6.14,3.27,11.93,8.54,15.09l23.4,14.04C285.76,147.32,295,163.65,295,181v8.24C295,247.56,247.56,295,189.25,295z M77.11,81.95
		c-3.52,0-6.38,2.86-6.38,6.38v20.94c0,9.52-5.07,18.48-13.23,23.38l-23.4,14.04c-11.98,7.19-19.43,20.34-19.43,34.32v8.24
		c0,52.98,43.1,96.09,96.09,96.09h78.49c52.98,0,96.09-43.1,96.09-96.09V181c0-13.98-7.45-27.13-19.43-34.32l-23.4-14.04
		c-8.16-4.9-13.24-13.86-13.24-23.38V88.33c0-3.52-2.86-6.38-6.38-6.38H77.11z"/>
	<g>
		<path class="st0" d="M88.33,115.59c-1.28,0-2.51-0.51-3.42-1.41c-0.9-0.91-1.41-2.16-1.41-3.42c0-0.32,0.03-0.63,0.1-0.95
			c0.06-0.31,0.15-0.61,0.27-0.9c0.13-0.29,0.27-0.58,0.45-0.84c0.17-0.26,0.38-0.51,0.6-0.73c0.91-0.9,2.16-1.41,3.42-1.41
			c1.28,0,2.51,0.51,3.42,1.41c0.22,0.22,0.43,0.47,0.6,0.73c0.17,0.26,0.32,0.55,0.44,0.84c0.12,0.29,0.21,0.59,0.27,0.9
			c0.07,0.32,0.1,0.63,0.1,0.95c0,1.28-0.51,2.51-1.41,3.42C90.84,115.07,89.6,115.59,88.33,115.59z"/>
		<path class="st0" d="M186.28,110.75c0-2.67,2.16-4.83,4.83-4.83l0,0c2.67,0,4.83,2.17,4.83,4.83l0,0c0,2.67-2.17,4.83-4.83,4.83
			l0,0C188.44,115.59,186.28,113.42,186.28,110.75z M165.73,110.75c0-2.67,2.16-4.83,4.83-4.83l0,0c2.67,0,4.83,2.17,4.83,4.83l0,0
			c0,2.67-2.16,4.83-4.83,4.83l0,0C167.88,115.59,165.73,113.42,165.73,110.75z M145.17,110.75c0-2.67,2.17-4.83,4.83-4.83l0,0
			c2.67,0,4.83,2.17,4.83,4.83l0,0c0,2.67-2.17,4.83-4.83,4.83l0,0C147.33,115.59,145.17,113.42,145.17,110.75z M124.61,110.75
			c0-2.67,2.17-4.83,4.83-4.83l0,0c2.68,0,4.83,2.17,4.83,4.83l0,0c0,2.67-2.16,4.83-4.83,4.83l0,0
			C126.77,115.59,124.61,113.42,124.61,110.75z M104.05,110.75c0-2.67,2.17-4.83,4.83-4.83l0,0c2.67,0,4.83,2.17,4.83,4.83l0,0
			c0,2.67-2.17,4.83-4.83,4.83l0,0C106.22,115.59,104.05,113.42,104.05,110.75z"/>
		<path class="st0" d="M211.67,115.59c-0.32,0-0.63-0.03-0.95-0.1c-0.31-0.06-0.61-0.15-0.9-0.27c-0.29-0.13-0.57-0.27-0.84-0.44
			c-0.26-0.17-0.51-0.38-0.73-0.6c-0.22-0.22-0.43-0.47-0.6-0.73c-0.17-0.27-0.32-0.55-0.44-0.84c-0.12-0.29-0.21-0.59-0.27-0.9
			c-0.07-0.32-0.1-0.63-0.1-0.95c0-1.28,0.51-2.52,1.41-3.42c0.22-0.22,0.47-0.43,0.73-0.6c0.26-0.17,0.55-0.32,0.84-0.44
			c0.29-0.12,0.59-0.21,0.9-0.27c0.63-0.13,1.27-0.13,1.9,0c0.31,0.06,0.61,0.15,0.9,0.27c0.29,0.13,0.57,0.27,0.83,0.44
			c0.27,0.17,0.51,0.38,0.74,0.6c0.91,0.9,1.42,2.15,1.42,3.42c0,1.28-0.51,2.51-1.42,3.42
			C214.19,115.07,212.94,115.59,211.67,115.59z"/>
	</g>
	<path class="st0" d="M256.53,93.16c-2.67,0-4.83-2.16-4.83-4.83c0-15.88-12.92-28.81-28.81-28.81H77.11
		c-15.88,0-28.81,12.92-28.81,28.81c0,2.67-2.16,4.83-4.83,4.83s-4.83-2.16-4.83-4.83c0-21.21,17.26-38.47,38.47-38.47h145.77
		c21.21,0,38.47,17.26,38.47,38.47C261.36,91,259.2,93.16,256.53,93.16z"/>
</g>
</svg>
