<?xml version="1.0" encoding="utf-8"?>
<!-- Generator: Adobe Illustrator 24.0.1, SVG Export Plug-In . SVG Version: 6.00 Build 0)  -->
<svg version="1.1" id="Layer_1" xmlns="http://www.w3.org/2000/svg" xmlns:xlink="http://www.w3.org/1999/xlink" x="0px" y="0px"
	 viewBox="0 0 300 300" style="enable-background:new 0 0 300 300;" xml:space="preserve">
<style type="text/css">
	.st0{fill:#808080;}
</style>
<g>
	<path class="st0" d="M64.34,295c-1.24,0-2.47-0.47-3.42-1.42L6.42,239.07c-1.89-1.89-1.89-4.95,0-6.83L232.24,6.42
		c1.89-1.89,4.95-1.89,6.83,0l54.51,54.51c1.89,1.89,1.89,4.95,0,6.84L67.76,293.58C66.82,294.53,65.58,295,64.34,295z
		 M16.67,235.66l47.67,47.67L283.33,64.34l-47.67-47.67L16.67,235.66z"/>
	<path class="st0" d="M229.63,55.05c-1.24,0-2.47-0.47-3.42-1.42l-16.82-16.82c-1.89-1.89-1.89-4.95,0-6.84
		c1.89-1.89,4.95-1.89,6.83,0l16.82,16.82c1.89,1.89,1.89,4.95,0,6.84C232.1,54.57,230.86,55.05,229.63,55.05z"/>
	<path class="st0" d="M201.59,71.87c-1.24,0-2.47-0.47-3.42-1.42l-11.21-11.21c-1.89-1.89-1.89-4.95,0-6.84
		c1.89-1.89,4.95-1.89,6.84,0l11.21,11.21c1.89,1.89,1.89,4.95,0,6.84C204.07,71.39,202.83,71.87,201.59,71.87z"/>
	<path class="st0" d="M184.77,99.9c-1.24,0-2.47-0.47-3.42-1.42l-16.82-16.82c-1.89-1.89-1.89-4.95,0-6.84
		c1.89-1.89,4.95-1.89,6.83,0l16.82,16.82c1.89,1.89,1.89,4.95,0,6.84C187.25,99.43,186.01,99.9,184.77,99.9z"/>
	<path class="st0" d="M156.74,116.72c-1.24,0-2.47-0.47-3.42-1.42l-11.21-11.21c-1.89-1.89-1.89-4.95,0-6.84
		c1.89-1.89,4.95-1.89,6.84,0l11.21,11.21c1.89,1.89,1.89,4.95,0,6.84C159.21,116.25,157.98,116.72,156.74,116.72z"/>
	<path class="st0" d="M139.92,144.75c-1.24,0-2.47-0.47-3.42-1.42l-16.82-16.82c-1.89-1.89-1.89-4.95,0-6.84
		c1.89-1.89,4.95-1.89,6.84,0l16.82,16.82c1.89,1.89,1.89,4.95,0,6.84C142.39,144.28,141.16,144.75,139.92,144.75z"/>
	<path class="st0" d="M111.89,161.57c-1.24,0-2.47-0.47-3.42-1.42l-11.21-11.21c-1.89-1.89-1.89-4.95,0-6.84
		c1.89-1.89,4.95-1.89,6.84,0l11.21,11.21c1.89,1.89,1.89,4.95,0,6.83C114.36,161.1,113.12,161.57,111.89,161.57z"/>
	<path class="st0" d="M95.07,189.61c-1.24,0-2.47-0.47-3.42-1.42l-16.82-16.82c-1.89-1.89-1.89-4.95,0-6.83
		c1.89-1.89,4.95-1.89,6.84,0l16.82,16.82c1.89,1.89,1.89,4.95,0,6.83C97.54,189.13,96.3,189.61,95.07,189.61z"/>
	<path class="st0" d="M67.03,206.43c-1.24,0-2.47-0.47-3.42-1.42L52.4,193.8c-1.89-1.89-1.89-4.95,0-6.84
		c1.89-1.89,4.95-1.89,6.84,0l11.21,11.21c1.89,1.89,1.89,4.95,0,6.84C69.51,205.95,68.27,206.43,67.03,206.43z"/>
	<path class="st0" d="M50.21,234.46c-1.24,0-2.47-0.47-3.42-1.42l-16.82-16.82c-1.89-1.89-1.89-4.95,0-6.83
		c1.89-1.89,4.95-1.89,6.84,0l16.82,16.82c1.89,1.89,1.89,4.95,0,6.83C52.69,233.99,51.45,234.46,50.21,234.46z"/>
</g>
</svg>
