<?xml version="1.0" encoding="utf-8"?>
<!-- Generator: Adobe Illustrator 24.0.1, SVG Export Plug-In . SVG Version: 6.00 Build 0)  -->
<svg version="1.1" id="Layer_1" xmlns="http://www.w3.org/2000/svg" xmlns:xlink="http://www.w3.org/1999/xlink" x="0px" y="0px"
	 viewBox="0 0 300 300" style="enable-background:new 0 0 300 300;" xml:space="preserve">
<style type="text/css">
	.st0{fill:#808080;}
</style>
<g>
	<path class="st0" d="M149.49,294.5c-16.67,0-41.66-16.53-63.65-42.11c-23.94-27.85-37.67-58.16-37.67-83.14
		c0-28.64,7.4-47.39,23.29-59c15.58-11.39,39.65-16.47,78.04-16.47c38.39,0,62.46,5.08,78.05,16.47
		c15.89,11.61,23.29,30.36,23.29,59c0,24.98-13.74,55.28-37.68,83.14C191.15,277.97,166.17,294.5,149.49,294.5z M149.49,103.45
		c-69.38,0-91.66,15.99-91.66,65.8c0,49.63,62.89,115.59,91.66,115.59c28.77,0,91.67-65.95,91.67-115.59
		C241.16,119.43,218.89,103.45,149.49,103.45z"/>
	<path class="st0" d="M91.67,140.32c-2.67,0-4.83-2.16-4.83-4.83v-9.67c0-2.67,2.16-4.83,4.83-4.83s4.83,2.16,4.83,4.83v9.67
		C96.5,138.15,94.34,140.32,91.67,140.32z"/>
	<path class="st0" d="M130.34,140.32c-2.67,0-4.83-2.16-4.83-4.83v-14.5c0-2.67,2.16-4.83,4.83-4.83c2.67,0,4.83,2.16,4.83,4.83
		v14.5C135.17,138.15,133.01,140.32,130.34,140.32z"/>
	<path class="st0" d="M169,140.32c-2.67,0-4.83-2.16-4.83-4.83v-14.5c0-2.67,2.16-4.83,4.83-4.83s4.83,2.16,4.83,4.83v14.5
		C173.84,138.15,171.67,140.32,169,140.32z"/>
	<path class="st0" d="M91.67,207.98c-2.67,0-4.83-2.16-4.83-4.83v-14.5c0-2.67,2.16-4.83,4.83-4.83s4.83,2.16,4.83,4.83v14.5
		C96.5,205.82,94.34,207.98,91.67,207.98z"/>
	<path class="st0" d="M130.34,207.98c-2.67,0-4.83-2.16-4.83-4.83v-14.5c0-2.67,2.16-4.83,4.83-4.83c2.67,0,4.83,2.16,4.83,4.83
		v14.5C135.17,205.82,133.01,207.98,130.34,207.98z"/>
	<path class="st0" d="M130.34,269.85c-2.67,0-4.83-2.16-4.83-4.83v-8.7c0-2.67,2.16-4.83,4.83-4.83c2.67,0,4.83,2.16,4.83,4.83v8.7
		C135.17,267.69,133.01,269.85,130.34,269.85z"/>
	<path class="st0" d="M169,269.85c-2.67,0-4.83-2.16-4.83-4.83v-8.7c0-2.67,2.16-4.83,4.83-4.83s4.83,2.16,4.83,4.83v8.7
		C173.84,267.69,171.67,269.85,169,269.85z"/>
	<path class="st0" d="M169,207.98c-2.67,0-4.83-2.16-4.83-4.83v-14.5c0-2.67,2.16-4.83,4.83-4.83s4.83,2.16,4.83,4.83v14.5
		C173.84,205.82,171.67,207.98,169,207.98z"/>
	<path class="st0" d="M207.67,140.32c-2.67,0-4.83-2.16-4.83-4.83v-9.67c0-2.67,2.16-4.83,4.83-4.83s4.83,2.16,4.83,4.83v9.67
		C212.5,138.15,210.34,140.32,207.67,140.32z"/>
	<path class="st0" d="M207.67,207.98c-2.67,0-4.83-2.16-4.83-4.83v-14.5c0-2.67,2.16-4.83,4.83-4.83s4.83,2.16,4.83,4.83v14.5
		C212.5,205.82,210.34,207.98,207.67,207.98z"/>
	<path class="st0" d="M111,174.15c-2.67,0-4.83-2.16-4.83-4.83v-14.5c0-2.67,2.16-4.83,4.83-4.83s4.83,2.16,4.83,4.83v14.5
		C115.84,171.99,113.67,174.15,111,174.15z"/>
	<path class="st0" d="M72.34,173.67c-2.67,0-4.83-2.16-4.83-4.83v-11.12c0-2.67,2.16-4.83,4.83-4.83s4.83,2.16,4.83,4.83v11.12
		C77.17,171.5,75.01,173.67,72.34,173.67z"/>
	<path class="st0" d="M149.67,174.15c-2.67,0-4.83-2.16-4.83-4.83v-14.5c0-2.67,2.16-4.83,4.83-4.83c2.67,0,4.83,2.16,4.83,4.83
		v14.5C154.5,171.99,152.34,174.15,149.67,174.15z"/>
	<path class="st0" d="M188.34,174.15c-2.67,0-4.83-2.16-4.83-4.83v-14.5c0-2.67,2.16-4.83,4.83-4.83s4.83,2.16,4.83,4.83v14.5
		C193.17,171.99,191.01,174.15,188.34,174.15z"/>
	<path class="st0" d="M227,173.67c-2.67,0-4.83-2.16-4.83-4.83v-11.12c0-2.67,2.16-4.83,4.83-4.83s4.83,2.16,4.83,4.83v11.12
		C231.84,171.5,229.67,173.67,227,173.67z"/>
	<path class="st0" d="M111,241.82c-2.67,0-4.83-2.16-4.83-4.83v-14.5c0-2.67,2.16-4.83,4.83-4.83s4.83,2.16,4.83,4.83v14.5
		C115.84,239.65,113.67,241.82,111,241.82z"/>
	<path class="st0" d="M149.67,241.82c-2.67,0-4.83-2.16-4.83-4.83v-14.5c0-2.67,2.16-4.83,4.83-4.83c2.67,0,4.83,2.16,4.83,4.83
		v14.5C154.5,239.65,152.34,241.82,149.67,241.82z"/>
	<path class="st0" d="M188.34,241.82c-2.67,0-4.83-2.16-4.83-4.83v-14.5c0-2.67,2.16-4.83,4.83-4.83s4.83,2.16,4.83,4.83v14.5
		C193.17,239.65,191.01,241.82,188.34,241.82z"/>
	<path class="st0" d="M149.49,103.58c-0.49,0-0.92-0.07-1.27-0.15c-9.97,0.32-22.52-3.88-34.59-11.64
		C91.7,77.7,79.9,57.89,86.21,45.72c1.92-3.69,5.32-6.33,9.83-7.62c8.04-2.3,19.32-0.31,31.11,5.34c0.84-9,2.75-17.26,5.53-23.8
		c4.16-9.76,10.13-15.14,16.81-15.14c12.69,0,20.43,18.68,22.36,39.23c11.97-5.86,23.45-7.98,31.66-5.66
		c4.56,1.29,7.98,3.93,9.91,7.65c6.31,12.17-5.49,31.98-27.44,46.07c-12.16,7.82-25.21,12.11-35.14,11.62
		C150.48,103.51,150.02,103.58,149.49,103.58z M150.33,93.7c0.13,0,0.26,0.01,0.4,0.02c7.88,0.65,19.4-3.21,30.05-10.06c0,0,0,0,0,0
		c17.79-11.42,27.38-27.1,24.08-33.49c-0.68-1.32-1.98-2.23-3.95-2.79c-7.04-1.99-19.17,1.31-30.92,8.39
		c-1.48,0.89-3.31,0.92-4.82,0.1c-1.51-0.83-2.46-2.4-2.5-4.13c-0.52-22.93-8.13-37.57-13.15-37.57c-4.97,0-12.56,14.5-13.14,37.21
		c-0.04,1.71-0.99,3.27-2.49,4.11c-1.5,0.83-3.33,0.81-4.8-0.07c-11.58-6.84-23.5-9.99-30.37-8.02c-1.95,0.56-3.23,1.47-3.91,2.78
		c-3.3,6.38,6.29,22.06,24.08,33.49c10.57,6.79,21.64,10.57,29.62,10.08c0.26-0.01,0.52-0.01,0.78,0.02
		c0.06,0.01,0.11,0.01,0.17,0.02c0.1-0.02,0.2-0.03,0.31-0.05C149.94,93.72,150.13,93.7,150.33,93.7z"/>
</g>
</svg>
