<?xml version="1.0" encoding="utf-8"?>
<!-- Generator: Adobe Illustrator 24.0.1, SVG Export Plug-In . SVG Version: 6.00 Build 0)  -->
<svg version="1.1" id="Layer_1" xmlns="http://www.w3.org/2000/svg" xmlns:xlink="http://www.w3.org/1999/xlink" x="0px" y="0px"
	 viewBox="0 0 300 300" style="enable-background:new 0 0 300 300;" xml:space="preserve">
<style type="text/css">
	.st0{fill:#808080;}
</style>
<g>
	<path class="st0" d="M149.5,294.5c-79.95,0-145-65.05-145-145c0-79.95,65.05-145,145-145c79.95,0,145,65.05,145,145
		C294.5,229.45,229.45,294.5,149.5,294.5z M149.5,14.17c-74.62,0-135.33,60.71-135.33,135.33S74.88,284.83,149.5,284.83
		s135.33-60.71,135.33-135.33S224.12,14.17,149.5,14.17z"/>
	<path class="st0" d="M149.5,154.33H65.4c-2.67,0-4.83-2.16-4.83-4.83c0-2.67,2.16-4.83,4.83-4.83h79.27V42.97
		c0-2.67,2.16-4.83,4.83-4.83c2.67,0,4.83,2.16,4.83,4.83V149.5C154.33,152.17,152.17,154.33,149.5,154.33z"/>
</g>
</svg>
