<?xml version="1.0" encoding="utf-8"?>
<!-- Generator: Adobe Illustrator 24.0.1, SVG Export Plug-In . SVG Version: 6.00 Build 0)  -->
<svg version="1.1" id="Layer_1" xmlns="http://www.w3.org/2000/svg" xmlns:xlink="http://www.w3.org/1999/xlink" x="0px" y="0px"
	 viewBox="0 0 300 300" style="enable-background:new 0 0 300 300;" xml:space="preserve">
<style type="text/css">
	.st0{fill:#808080;}
</style>
<g>
	<path class="st0" d="M278.45,249.65H20.55c-8.85,0-16.05-7.2-16.05-16.05V65.4c0-8.85,7.2-16.05,16.05-16.05h257.91
		c8.85,0,16.05,7.2,16.05,16.05v168.2C294.5,242.45,287.3,249.65,278.45,249.65z M20.55,59.02c-3.52,0-6.38,2.86-6.38,6.38v168.2
		c0,3.52,2.86,6.38,6.38,6.38h257.91c3.52,0,6.38-2.86,6.38-6.38V65.4c0-3.52-2.86-6.38-6.38-6.38H20.55z"/>
	<path class="st0" d="M149.5,180.63c-9.59,0-19.17-3.59-26.65-10.76L9.28,60.96c-1.93-1.85-1.99-4.91-0.14-6.83
		c1.85-1.93,4.91-1.99,6.83-0.14l113.58,108.91c11.19,10.74,28.71,10.74,39.9,0L283.03,53.99c1.93-1.85,4.99-1.78,6.83,0.14
		c1.85,1.93,1.78,4.99-0.14,6.83L176.14,169.87C168.67,177.04,159.09,180.63,149.5,180.63z"/>
	<path class="st0" d="M286.38,246.36c-1.2,0-2.41-0.45-3.34-1.34l-95.98-92.03c-1.93-1.85-1.99-4.91-0.14-6.83
		c1.85-1.93,4.91-1.99,6.83-0.14l95.98,92.03c1.93,1.85,1.99,4.91,0.14,6.83C288.92,245.86,287.65,246.36,286.38,246.36z"/>
	<path class="st0" d="M12.62,246.36c-1.27,0-2.54-0.5-3.49-1.49c-1.85-1.93-1.78-4.99,0.14-6.83l95.97-92.03
		c1.93-1.85,4.98-1.78,6.83,0.14c1.85,1.93,1.78,4.99-0.14,6.83l-95.97,92.03C15.03,245.91,13.83,246.36,12.62,246.36z"/>
</g>
</svg>
