<?xml version="1.0" encoding="utf-8"?>
<!-- Generator: Adobe Illustrator 24.0.1, SVG Export Plug-In . SVG Version: 6.00 Build 0)  -->
<svg version="1.1" id="Layer_1" xmlns="http://www.w3.org/2000/svg" xmlns:xlink="http://www.w3.org/1999/xlink" x="0px" y="0px"
	 viewBox="0 0 300 300" style="enable-background:new 0 0 300 300;" xml:space="preserve">
<style type="text/css">
	.st0{fill:#808080;}
</style>
<g>
	<path class="st0" d="M280,275.17H67.33c-8,0-14.5-6.5-14.5-14.5V125.33c0-8,6.5-14.5,14.5-14.5H280c8,0,14.5,6.5,14.5,14.5v135.33
		C294.5,268.66,288,275.17,280,275.17z M67.33,120.5c-2.66,0-4.83,2.17-4.83,4.83v135.33c0,2.66,2.17,4.83,4.83,4.83H280
		c2.66,0,4.83-2.17,4.83-4.83V125.33c0-2.66-2.17-4.83-4.83-4.83H67.33z"/>
	<path class="st0" d="M101.17,168.83H81.83c-5.33,0-9.67-4.34-9.67-9.67v-19.33c0-5.33,4.34-9.67,9.67-9.67h19.33
		c5.33,0,9.67,4.34,9.67,9.67v19.33C110.83,164.5,106.5,168.83,101.17,168.83z M81.83,139.83v19.33h19.34l-0.01-19.33H81.83z"/>
	<path class="st0" d="M251,255.83c-5.25,0-10.33-1.75-14.5-4.92c-4.17,3.17-9.25,4.92-14.5,4.92c-13.33,0-24.17-10.84-24.17-24.17
		c0-13.33,10.84-24.17,24.17-24.17c5.25,0,10.33,1.75,14.5,4.92c4.17-3.17,9.25-4.92,14.5-4.92c13.33,0,24.17,10.84,24.17,24.17
		C275.17,244.99,264.33,255.83,251,255.83z M236.5,239.5c1.39,0,2.72,0.6,3.64,1.65c2.83,3.23,6.68,5.02,10.86,5.02
		c8,0,14.5-6.5,14.5-14.5c0-8-6.5-14.5-14.5-14.5c-4.18,0-8.03,1.78-10.86,5.02c-0.92,1.05-2.24,1.65-3.64,1.65s-2.72-0.6-3.64-1.65
		c-2.83-3.23-6.68-5.02-10.86-5.02c-8,0-14.5,6.5-14.5,14.5c0,8,6.5,14.5,14.5,14.5c4.18,0,8.03-1.78,10.86-5.02
		C233.78,240.1,235.11,239.5,236.5,239.5z"/>
	<path class="st0" d="M173.67,255.83h-87c-2.67,0-4.83-2.16-4.83-4.83s2.16-4.83,4.83-4.83h87c2.67,0,4.83,2.16,4.83,4.83
		S176.34,255.83,173.67,255.83z"/>
	<path class="st0" d="M106,236.5H86.67c-2.67,0-4.83-2.16-4.83-4.83c0-2.67,2.16-4.83,4.83-4.83H106c2.67,0,4.83,2.16,4.83,4.83
		C110.83,234.34,108.67,236.5,106,236.5z"/>
	<path class="st0" d="M86.67,197.83c-2.67,0-4.83-2.16-4.83-4.83v-4.83c0-2.67,2.16-4.83,4.83-4.83c2.67,0,4.83,2.16,4.83,4.83V193
		C91.5,195.67,89.34,197.83,86.67,197.83z"/>
	<path class="st0" d="M106,197.83c-2.67,0-4.83-2.16-4.83-4.83v-4.83c0-2.67,2.16-4.83,4.83-4.83s4.83,2.16,4.83,4.83V193
		C110.83,195.67,108.67,197.83,106,197.83z"/>
	<path class="st0" d="M125.33,197.83c-2.67,0-4.83-2.16-4.83-4.83v-4.83c0-2.67,2.16-4.83,4.83-4.83s4.83,2.16,4.83,4.83V193
		C130.17,195.67,128,197.83,125.33,197.83z"/>
	<path class="st0" d="M183.33,197.83c-2.67,0-4.83-2.16-4.83-4.83v-4.83c0-2.67,2.16-4.83,4.83-4.83s4.83,2.16,4.83,4.83V193
		C188.17,195.67,186,197.83,183.33,197.83z"/>
	<path class="st0" d="M241.33,197.83c-2.67,0-4.83-2.16-4.83-4.83v-4.83c0-2.67,2.16-4.83,4.83-4.83s4.83,2.16,4.83,4.83V193
		C246.17,195.67,244,197.83,241.33,197.83z"/>
	<path class="st0" d="M144.67,197.83c-2.67,0-4.83-2.16-4.83-4.83v-4.83c0-2.67,2.16-4.83,4.83-4.83s4.83,2.16,4.83,4.83V193
		C149.5,195.67,147.34,197.83,144.67,197.83z"/>
	<path class="st0" d="M164,197.83c-2.67,0-4.83-2.16-4.83-4.83v-4.83c0-2.67,2.16-4.83,4.83-4.83c2.67,0,4.83,2.16,4.83,4.83V193
		C168.83,195.67,166.67,197.83,164,197.83z"/>
	<path class="st0" d="M202.67,197.83c-2.67,0-4.83-2.16-4.83-4.83v-4.83c0-2.67,2.16-4.83,4.83-4.83s4.83,2.16,4.83,4.83V193
		C207.5,195.67,205.34,197.83,202.67,197.83z"/>
	<path class="st0" d="M222,197.83c-2.67,0-4.83-2.16-4.83-4.83v-4.83c0-2.67,2.16-4.83,4.83-4.83s4.83,2.16,4.83,4.83V193
		C226.83,195.67,224.67,197.83,222,197.83z"/>
	<path class="st0" d="M260.67,197.83c-2.67,0-4.83-2.16-4.83-4.83v-4.83c0-2.67,2.16-4.83,4.83-4.83c2.67,0,4.83,2.16,4.83,4.83V193
		C265.5,195.67,263.34,197.83,260.67,197.83z"/>
	<path class="st0" d="M144.67,236.5h-19.33c-2.67,0-4.83-2.16-4.83-4.83c0-2.67,2.16-4.83,4.83-4.83h19.33
		c2.67,0,4.83,2.16,4.83,4.83C149.5,234.34,147.34,236.5,144.67,236.5z"/>
	<path class="st0" d="M57.67,188.17H19c-8,0-14.5-6.5-14.5-14.5V38.33c0-8,6.5-14.5,14.5-14.5h212.67c8,0,14.5,6.5,14.5,14.5v77.33
		c0,2.67-2.16,4.83-4.83,4.83h-174c-2.66,0-4.83,2.17-4.83,4.83v58C62.5,186,60.34,188.17,57.67,188.17z M19,33.5
		c-2.66,0-4.83,2.17-4.83,4.83v135.33c0,2.66,2.17,4.83,4.83,4.83h33.83v-53.17c0-8,6.5-14.5,14.5-14.5H236.5v-72.5
		c0-2.66-2.17-4.83-4.83-4.83H19z"/>
	<path class="st0" d="M241.33,91.5h-232c-2.67,0-4.83-2.16-4.83-4.83v-29c0-2.67,2.16-4.83,4.83-4.83h232
		c2.67,0,4.83,2.16,4.83,4.83v29C246.17,89.34,244,91.5,241.33,91.5z M14.17,81.83H236.5V62.5H14.17V81.83z"/>
	<path class="st0" d="M9.33,91.5c-1.24,0-2.47-0.47-3.42-1.42c-1.89-1.89-1.89-4.95,0-6.84l29-29c1.89-1.89,4.95-1.89,6.84,0
		c1.89,1.89,1.89,4.95,0,6.84l-29,29C11.81,91.03,10.57,91.5,9.33,91.5z"/>
	<path class="st0" d="M38.33,91.5c-1.24,0-2.47-0.47-3.42-1.42c-1.89-1.89-1.89-4.95,0-6.84l29-29c1.89-1.89,4.95-1.89,6.84,0
		c1.89,1.89,1.89,4.95,0,6.84l-29,29C40.81,91.03,39.57,91.5,38.33,91.5z"/>
	<path class="st0" d="M67.33,91.5c-1.24,0-2.47-0.47-3.42-1.42c-1.89-1.89-1.89-4.95,0-6.84l29-29c1.89-1.89,4.95-1.89,6.84,0
		c1.89,1.89,1.89,4.95,0,6.84l-29,29C69.81,91.03,68.57,91.5,67.33,91.5z"/>
	<path class="st0" d="M96.33,91.5c-1.24,0-2.47-0.47-3.42-1.42c-1.89-1.89-1.89-4.95,0-6.84l29-29c1.89-1.89,4.95-1.89,6.84,0
		c1.89,1.89,1.89,4.95,0,6.84l-29,29C98.81,91.03,97.57,91.5,96.33,91.5z"/>
	<path class="st0" d="M125.33,91.5c-1.24,0-2.47-0.47-3.42-1.42c-1.89-1.89-1.89-4.95,0-6.84l29-29c1.89-1.89,4.95-1.89,6.83,0
		c1.89,1.89,1.89,4.95,0,6.84l-29,29C127.81,91.03,126.57,91.5,125.33,91.5z"/>
	<path class="st0" d="M154.33,91.5c-1.24,0-2.47-0.47-3.42-1.42c-1.89-1.89-1.89-4.95,0-6.84l29-29c1.89-1.89,4.95-1.89,6.83,0
		c1.89,1.89,1.89,4.95,0,6.84l-29,29C156.81,91.03,155.57,91.5,154.33,91.5z"/>
	<path class="st0" d="M183.33,91.5c-1.24,0-2.47-0.47-3.42-1.42c-1.89-1.89-1.89-4.95,0-6.84l29-29c1.89-1.89,4.95-1.89,6.83,0
		c1.89,1.89,1.89,4.95,0,6.84l-29,29C185.81,91.03,184.57,91.5,183.33,91.5z"/>
	<path class="st0" d="M212.33,91.5c-1.24,0-2.47-0.47-3.42-1.42c-1.89-1.89-1.89-4.95,0-6.84l29-29c1.89-1.89,4.95-1.89,6.83,0
		c1.89,1.89,1.89,4.95,0,6.84l-29,29C214.81,91.03,213.57,91.5,212.33,91.5z"/>
</g>
</svg>
