<?xml version="1.0" encoding="utf-8"?>
<!-- Generator: Adobe Illustrator 24.0.1, SVG Export Plug-In . SVG Version: 6.00 Build 0)  -->
<svg version="1.1" id="Layer_1" xmlns="http://www.w3.org/2000/svg" xmlns:xlink="http://www.w3.org/1999/xlink" x="0px" y="0px"
	 viewBox="0 0 300 300" style="enable-background:new 0 0 300 300;" xml:space="preserve">
<style type="text/css">
	.st0{fill:#808080;}
</style>
<g>
	<path class="st0" d="M130,299.78c-2.76,0-5-2.24-5-5v-39.97c0-2.76,2.24-5,5-5s5,2.24,5,5v39.97
		C135,297.54,132.76,299.78,130,299.78z"/>
	<path class="st0" d="M150,299.78c-2.76,0-5-2.24-5-5v-39.97c0-2.76,2.24-5,5-5c2.76,0,5,2.24,5,5v39.97
		C155,297.54,152.76,299.78,150,299.78z"/>
	<path class="st0" d="M170,298.26c-2.76,0-5-2.24-5-5V253.4c0-2.76,2.24-5,5-5s5,2.24,5,5v39.86
		C175,296.02,172.76,298.26,170,298.26z"/>
	<path class="st0" d="M110,298.26c-2.76,0-5-2.24-5-5V253.4c0-2.76,2.24-5,5-5s5,2.24,5,5v39.86
		C115,296.02,112.76,298.26,110,298.26z"/>
	<path class="st0" d="M190,295.02c-2.76,0-5-2.24-5-5v-40c0-2.76,2.24-5,5-5s5,2.24,5,5v40C195,292.78,192.76,295.02,190,295.02z"/>
	<path class="st0" d="M90,295.02c-2.76,0-5-2.24-5-5v-40c0-2.76,2.24-5,5-5s5,2.24,5,5v40C95,292.78,92.76,295.02,90,295.02z"/>
	<path class="st0" d="M210,289.78c-2.76,0-5-2.24-5-5v-40c0-2.76,2.24-5,5-5s5,2.24,5,5v40C215,287.54,212.76,289.78,210,289.78z"/>
	<path class="st0" d="M70,289.78c-2.76,0-5-2.24-5-5v-40c0-2.76,2.24-5,5-5s5,2.24,5,5v40C75,287.54,72.76,289.78,70,289.78z"/>
	<path class="st0" d="M230,281.9c-2.76,0-5-2.24-5-5v-40c0-2.76,2.24-5,5-5s5,2.24,5,5v40C235,279.66,232.76,281.9,230,281.9z"/>
	<path class="st0" d="M50,281.9c-2.76,0-5-2.24-5-5v-40c0-2.76,2.24-5,5-5s5,2.24,5,5v40C55,279.66,52.76,281.9,50,281.9z"/>
	<path class="st0" d="M250,269.78c-2.76,0-5-2.24-5-5v-40.14c0-2.76,2.24-5,5-5s5,2.24,5,5v40.14
		C255,267.54,252.76,269.78,250,269.78z"/>
	<path class="st0" d="M30,269.78c-2.76,0-5-2.24-5-5v-40.14c0-2.76,2.24-5,5-5s5,2.24,5,5v40.14C35,267.54,32.76,269.78,30,269.78z"
		/>
	<path class="st0" d="M140,300c-35.49,0-68.93-6.95-94.16-19.57C19.5,267.27,5,249.35,5,230v-40c0-13.86,7.57-27.19,21.89-38.54
		c1.5-1.19,3.55-1.42,5.28-0.58c1.73,0.83,2.82,2.58,2.82,4.5V170c0,15.37,12.54,30.1,35.31,41.49C94.19,223.43,126.04,230,160,230
		c43.79,0,83.75-10.95,106.89-29.29c1.5-1.19,3.56-1.42,5.28-0.58c1.73,0.83,2.82,2.58,2.82,4.5V230c0,19.35-14.5,37.27-40.84,50.43
		C208.93,293.05,175.49,300,140,300z M25,166.87c-5.48,6.14-10,13.97-10,23.13v40c0,15.37,12.54,30.1,35.31,41.49
		C74.19,283.43,106.04,290,140,290s65.81-6.57,89.69-18.51C252.46,260.1,265,245.37,265,230v-15.7c-25.38,16.21-63.71,25.7-105,25.7
		c-35.49,0-68.93-6.95-94.16-19.57C39.5,207.27,25,189.35,25,170V166.87z"/>
	<path class="st0" d="M140,140c-35.49,0-68.93-6.95-94.16-19.57C19.5,107.27,5,89.35,5,70s14.5-37.27,40.84-50.43
		C71.07,6.95,104.51,0,140,0s68.93,6.95,94.16,19.57C260.5,32.73,275,50.65,275,70s-14.5,37.27-40.84,50.43
		C208.93,133.05,175.49,140,140,140z M140,10c-33.96,0-65.81,6.57-89.69,18.51C27.54,39.9,15,54.63,15,70s12.54,30.1,35.31,41.49
		C74.19,123.43,106.04,130,140,130s65.81-6.57,89.69-18.51C252.46,100.1,265,85.37,265,70s-12.54-30.1-35.31-41.49
		C205.81,16.57,173.96,10,140,10z"/>
	<path class="st0" d="M140,180c-35.49,0-68.93-6.95-94.16-19.57C19.5,147.27,5,129.35,5,110V70c0-2.76,2.24-5,5-5s5,2.24,5,5v40
		c0,15.37,12.54,30.1,35.31,41.49C74.19,163.43,106.04,170,140,170s65.81-6.57,89.69-18.51C252.46,140.1,265,125.37,265,110V70
		c0-2.76,2.24-5,5-5s5,2.24,5,5v40c0,19.35-14.5,37.27-40.84,50.43C208.93,173.05,175.49,180,140,180z"/>
	<path class="st0" d="M130,179.78c-2.76,0-5-2.24-5-5v-39.97c0-2.76,2.24-5,5-5s5,2.24,5,5v39.97
		C135,177.54,132.76,179.78,130,179.78z"/>
	<path class="st0" d="M150,179.78c-2.76,0-5-2.24-5-5v-39.97c0-2.76,2.24-5,5-5c2.76,0,5,2.24,5,5v39.97
		C155,177.54,152.76,179.78,150,179.78z"/>
	<path class="st0" d="M170,178.26c-2.76,0-5-2.24-5-5V133.4c0-2.76,2.24-5,5-5s5,2.24,5,5v39.86
		C175,176.02,172.76,178.26,170,178.26z"/>
	<path class="st0" d="M110,178.26c-2.76,0-5-2.24-5-5V133.4c0-2.76,2.24-5,5-5s5,2.24,5,5v39.86
		C115,176.02,112.76,178.26,110,178.26z"/>
	<path class="st0" d="M190,175.02c-2.76,0-5-2.24-5-5v-40c0-2.76,2.24-5,5-5s5,2.24,5,5v40C195,172.78,192.76,175.02,190,175.02z"/>
	<path class="st0" d="M90,175.02c-2.76,0-5-2.24-5-5v-40c0-2.76,2.24-5,5-5s5,2.24,5,5v40C95,172.78,92.76,175.02,90,175.02z"/>
	<path class="st0" d="M210,169.78c-2.76,0-5-2.24-5-5v-40c0-2.76,2.24-5,5-5s5,2.24,5,5v40C215,167.54,212.76,169.78,210,169.78z"/>
	<path class="st0" d="M70,169.78c-2.76,0-5-2.24-5-5v-40c0-2.76,2.24-5,5-5s5,2.24,5,5v40C75,167.54,72.76,169.78,70,169.78z"/>
	<path class="st0" d="M230,161.9c-2.76,0-5-2.24-5-5v-40c0-2.76,2.24-5,5-5s5,2.24,5,5v40C235,159.66,232.76,161.9,230,161.9z"/>
	<path class="st0" d="M50,161.9c-2.76,0-5-2.24-5-5v-40c0-2.76,2.24-5,5-5s5,2.24,5,5v40C55,159.66,52.76,161.9,50,161.9z"/>
	<path class="st0" d="M250,149.78c-2.76,0-5-2.24-5-5v-40.14c0-2.76,2.24-5,5-5s5,2.24,5,5v40.14
		C255,147.54,252.76,149.78,250,149.78z"/>
	<path class="st0" d="M30,149.78c-2.76,0-5-2.24-5-5v-40.14c0-2.76,2.24-5,5-5s5,2.24,5,5v40.14C35,147.54,32.76,149.78,30,149.78z"
		/>
	<path class="st0" d="M140,260c-35.49,0-68.93-6.95-94.16-19.57C19.5,227.27,5,209.35,5,190c0-2.76,2.24-5,5-5s5,2.24,5,5
		c0,15.37,12.54,30.1,35.31,41.49C74.19,243.43,106.04,250,140,250c55.36,0,104.82-18.07,120.26-43.94
		c1.42-2.37,4.48-3.15,6.86-1.73c2.37,1.42,3.15,4.49,1.73,6.86C251.42,240.38,199.63,260,140,260z"/>
	<path class="st0" d="M170,239.78c-2.76,0-5-2.24-5-5v-39.97c0-2.76,2.24-5,5-5s5,2.24,5,5v39.97
		C175,237.54,172.76,239.78,170,239.78z"/>
	<path class="st0" d="M150,239.78c-2.76,0-5-2.24-5-5v-39.97c0-2.76,2.24-5,5-5c2.76,0,5,2.24,5,5v39.97
		C155,237.54,152.76,239.78,150,239.78z"/>
	<path class="st0" d="M130,238.26c-2.76,0-5-2.24-5-5V193.4c0-2.76,2.24-5,5-5s5,2.24,5,5v39.86
		C135,236.02,132.76,238.26,130,238.26z"/>
	<path class="st0" d="M190,238.26c-2.76,0-5-2.24-5-5V193.4c0-2.76,2.24-5,5-5s5,2.24,5,5v39.86
		C195,236.02,192.76,238.26,190,238.26z"/>
	<path class="st0" d="M110,235.02c-2.76,0-5-2.24-5-5v-40c0-2.76,2.24-5,5-5s5,2.24,5,5v40C115,232.78,112.76,235.02,110,235.02z"/>
	<path class="st0" d="M210,235.02c-2.76,0-5-2.24-5-5v-40c0-2.76,2.24-5,5-5s5,2.24,5,5v40C215,232.78,212.76,235.02,210,235.02z"/>
	<path class="st0" d="M90,229.78c-2.76,0-5-2.24-5-5v-40c0-2.76,2.24-5,5-5s5,2.24,5,5v40C95,227.54,92.76,229.78,90,229.78z"/>
	<path class="st0" d="M230,229.78c-2.76,0-5-2.24-5-5v-40c0-2.76,2.24-5,5-5s5,2.24,5,5v40C235,227.54,232.76,229.78,230,229.78z"/>
	<path class="st0" d="M70,221.9c-2.76,0-5-2.24-5-5v-40c0-2.76,2.24-5,5-5s5,2.24,5,5v40C75,219.66,72.76,221.9,70,221.9z"/>
	<path class="st0" d="M250,221.9c-2.76,0-5-2.24-5-5v-40c0-2.76,2.24-5,5-5s5,2.24,5,5v40C255,219.66,252.76,221.9,250,221.9z"/>
	<path class="st0" d="M50,209.78c-2.76,0-5-2.24-5-5v-40.14c0-2.76,2.24-5,5-5s5,2.24,5,5v40.14C55,207.54,52.76,209.78,50,209.78z"
		/>
	<path class="st0" d="M270,209.78c-2.76,0-5-2.24-5-5v-40.14c0-2.76,2.24-5,5-5s5,2.24,5,5v40.14
		C275,207.54,272.76,209.78,270,209.78z"/>
	<path class="st0" d="M160,240c-35.49,0-68.93-6.95-94.16-19.57C39.5,207.27,25,189.35,25,170v-25.38c0-1.92,1.1-3.67,2.82-4.5
		c1.73-0.84,3.78-0.61,5.28,0.58C56.25,159.05,96.21,170,140,170c33.96,0,65.81-6.57,89.69-18.51C252.46,140.1,265,125.37,265,110
		V95.38c0-1.92,1.1-3.67,2.82-4.5c1.73-0.83,3.78-0.61,5.28,0.58C287.43,102.81,295,116.14,295,130v40
		c0,19.35-14.5,37.27-40.84,50.43C228.93,233.05,195.49,240,160,240z M35,154.3V170c0,15.37,12.54,30.1,35.31,41.49
		C94.19,223.43,126.04,230,160,230s65.81-6.57,89.69-18.51C272.46,200.1,285,185.37,285,170v-40c0-9.16-4.52-16.99-10-23.13V110
		c0,19.35-14.5,37.27-40.84,50.43C208.93,173.05,175.49,180,140,180C98.7,180,60.38,170.51,35,154.3z"/>
	<path class="st0" d="M160,200c-59.63,0-111.42-19.62-128.85-48.82c-1.42-2.37-0.64-5.44,1.73-6.86c2.37-1.42,5.44-0.64,6.86,1.73
		C55.18,171.93,104.64,190,160,190c33.96,0,65.81-6.57,89.69-18.51C272.46,160.1,285,145.37,285,130c0-2.76,2.24-5,5-5s5,2.24,5,5
		c0,19.35-14.5,37.27-40.84,50.43C228.93,193.05,195.49,200,160,200z"/>
	<path class="st0" d="M140,120c-30.02,0-58.31-4.81-79.67-13.55C37.55,97.13,25,84.18,25,70s12.55-27.13,35.33-36.45
		C81.69,24.81,109.98,20,140,20c30.02,0,58.31,4.81,79.67,13.55C242.45,42.87,255,55.82,255,70s-12.55,27.13-35.33,36.45
		C198.31,115.19,170.02,120,140,120z M140,30c-28.75,0-55.7,4.55-75.89,12.81C45.61,50.38,35,60.29,35,70s10.61,19.62,29.11,27.19
		C84.3,105.45,111.25,110,140,110s55.7-4.55,75.89-12.81C234.39,89.62,245,79.71,245,70s-10.61-19.62-29.11-27.19
		C195.7,34.55,168.75,30,140,30z"/>
</g>
</svg>
