<?xml version="1.0" encoding="utf-8"?>
<!-- Generator: Adobe Illustrator 24.0.1, SVG Export Plug-In . SVG Version: 6.00 Build 0)  -->
<svg version="1.1" id="Layer_1" xmlns="http://www.w3.org/2000/svg" xmlns:xlink="http://www.w3.org/1999/xlink" x="0px" y="0px"
	 viewBox="0 0 300 300" style="enable-background:new 0 0 300 300;" xml:space="preserve">
<style type="text/css">
	.st0{fill:#808080;}
</style>
<g>
	<path class="st0" d="M149.5,294.5c-79.95,0-145-65.05-145-145c0-79.95,65.05-145,145-145c79.95,0,145,65.05,145,145
		C294.5,229.45,229.45,294.5,149.5,294.5z M149.5,14.17c-74.62,0-135.33,60.71-135.33,135.33S74.88,284.83,149.5,284.83
		s135.33-60.71,135.33-135.33S224.12,14.17,149.5,14.17z"/>
	<path class="st0" d="M149.5,171.15c-2.11,0-3.98-1.37-4.61-3.39l-19.67-62.95c-2.44-7.81-1.06-16.07,3.79-22.66
		c4.85-6.59,12.32-10.37,20.5-10.37c8.18,0,15.65,3.78,20.5,10.37c4.85,6.59,6.22,14.85,3.78,22.66l-19.67,62.95
		C153.48,169.78,151.61,171.15,149.5,171.15z M149.5,81.45c-5.07,0-9.71,2.34-12.71,6.43c-3.01,4.09-3.86,9.21-2.35,14.05
		l15.06,48.19l15.06-48.19c1.51-4.84,0.66-9.96-2.35-14.05C159.21,83.79,154.57,81.45,149.5,81.45z"/>
	<path class="st0" d="M149.5,227.22c-11.94,0-21.65-9.71-21.65-21.65s9.71-21.65,21.65-21.65s21.65,9.71,21.65,21.65
		S161.44,227.22,149.5,227.22z M149.5,193.58c-6.61,0-11.99,5.38-11.99,11.99s5.38,11.99,11.99,11.99c6.61,0,11.99-5.38,11.99-11.99
		S156.11,193.58,149.5,193.58z"/>
</g>
</svg>
