<?xml version="1.0" encoding="utf-8"?>
<!-- Generator: Adobe Illustrator 24.0.1, SVG Export Plug-In . SVG Version: 6.00 Build 0)  -->
<svg version="1.1" id="Layer_1" xmlns="http://www.w3.org/2000/svg" xmlns:xlink="http://www.w3.org/1999/xlink" x="0px" y="0px"
	 viewBox="0 0 300 300" style="enable-background:new 0 0 300 300;" xml:space="preserve">
<style type="text/css">
	.st0{fill:#808080;}
</style>
<g>
	<path class="st0" d="M149.5,294.5c-79.95,0-145-65.05-145-145c0-79.95,65.05-145,145-145c79.95,0,145,65.05,145,145
		C294.5,229.45,229.45,294.5,149.5,294.5z M149.5,14.17c-74.62,0-135.33,60.71-135.33,135.33S74.88,284.83,149.5,284.83
		s135.33-60.71,135.33-135.33S224.12,14.17,149.5,14.17z"/>
	<path class="st0" d="M171.93,238.43h-44.85c-2.67,0-4.83-2.16-4.83-4.83v-22.43c0-2.67,2.16-4.83,4.83-4.83h6.38v-57.61h-6.38
		c-2.67,0-4.83-2.16-4.83-4.83v-16.82c0-2.36,1.71-4.38,4.04-4.77l33.64-5.61c1.4-0.23,2.84,0.16,3.92,1.08
		c1.08,0.92,1.71,2.27,1.71,3.69v84.87h6.38c2.67,0,4.83,2.16,4.83,4.83v22.43C176.76,236.27,174.6,238.43,171.93,238.43z
		 M131.91,228.77h35.19v-12.76h-6.38c-2.67,0-4.83-2.16-4.83-4.83v-84l-23.97,4v7.89h6.38c2.67,0,4.83,2.16,4.83,4.83v67.28
		c0,2.67-2.16,4.83-4.83,4.83h-6.38V228.77z"/>
	<path class="st0" d="M149.5,103.87c-11.94,0-21.65-9.71-21.65-21.65s9.71-21.65,21.65-21.65s21.65,9.71,21.65,21.65
		S161.44,103.87,149.5,103.87z M149.5,70.23c-6.61,0-11.99,5.38-11.99,11.99c0,6.61,5.38,11.99,11.99,11.99
		c6.61,0,11.99-5.38,11.99-11.99C161.49,75.61,156.11,70.23,149.5,70.23z"/>
</g>
</svg>
