<?xml version="1.0" encoding="utf-8"?>
<!-- Generator: Adobe Illustrator 24.0.1, SVG Export Plug-In . SVG Version: 6.00 Build 0)  -->
<svg version="1.1" id="Layer_1" xmlns="http://www.w3.org/2000/svg" xmlns:xlink="http://www.w3.org/1999/xlink" x="0px" y="0px"
	 viewBox="0 0 300 300" style="enable-background:new 0 0 300 300;" xml:space="preserve">
<style type="text/css">
	.st0{fill:#808080;}
</style>
<g>
	<path class="st0" d="M150,279.44c-1.44,0-2.81-0.62-3.76-1.71l-34.8-39.77H30.74C16.55,237.96,5,226.42,5,212.22V46.3
		C5,32.1,16.55,20.56,30.74,20.56h238.52C283.45,20.56,295,32.1,295,46.3v165.93c0,14.19-11.55,25.74-25.74,25.74h-80.69
		l-34.8,39.77C152.81,278.82,151.44,279.44,150,279.44z M30.74,30.56C22.06,30.56,15,37.62,15,46.3v165.93
		c0,8.68,7.06,15.74,15.74,15.74h82.96c1.44,0,2.81,0.62,3.76,1.71L150,266.85l32.53-37.18c0.95-1.08,2.32-1.71,3.76-1.71h82.96
		c8.68,0,15.74-7.06,15.74-15.74V46.3c0-8.68-7.06-15.74-15.74-15.74H30.74z"/>
	<path class="st0" d="M217.41,123.89H82.59c-2.76,0-5-2.24-5-5s2.24-5,5-5h134.81c2.76,0,5,2.24,5,5S220.17,123.89,217.41,123.89z"
		/>
	<path class="st0" d="M217.41,155H82.59c-2.76,0-5-2.24-5-5c0-2.76,2.24-5,5-5h134.81c2.76,0,5,2.24,5,5
		C222.41,152.76,220.17,155,217.41,155z"/>
	<path class="st0" d="M175.93,92.78h-51.85c-2.76,0-5-2.24-5-5s2.24-5,5-5h51.85c2.76,0,5,2.24,5,5S178.69,92.78,175.93,92.78z"/>
</g>
</svg>
