<?xml version="1.0" encoding="utf-8"?>
<!-- Generator: Adobe Illustrator 24.0.1, SVG Export Plug-In . SVG Version: 6.00 Build 0)  -->
<svg version="1.1" id="Layer_1" xmlns="http://www.w3.org/2000/svg" xmlns:xlink="http://www.w3.org/1999/xlink" x="0px" y="0px"
	 viewBox="0 0 300 300" style="enable-background:new 0 0 300 300;" xml:space="preserve">
<style type="text/css">
	.st0{fill:#808080;}
</style>
<g>
	<path class="st0" d="M229.27,150.37c-6.38,0-11.6-4.9-16.64-9.64c-3.22-3.02-7.21-6.78-9.68-6.94c-2.47,0.16-6.46,3.92-9.68,6.94
		c-5.04,4.74-10.26,9.64-16.63,9.64h-0.32c-6.38,0-11.59-4.9-16.63-9.64c-3.22-3.03-7.21-6.78-9.68-6.95
		c-2.47,0.16-6.46,3.92-9.67,6.94c-5.04,4.74-10.26,9.65-16.64,9.65h-0.31c-6.38,0-11.59-4.9-16.64-9.64
		c-3.22-3.02-7.21-6.78-9.68-6.94c-2.47,0.16-6.47,3.92-9.68,6.95c-5.04,4.74-10.25,9.64-16.63,9.64c-10.03,0-18.2-8.86-18.2-19.76
		v-3.81c0-12.88,10.52-23.35,23.46-23.35h148c12.93,0,23.46,10.48,23.46,23.35l0,3.81C247.46,141.5,239.3,150.37,229.27,150.37z
		 M202.94,123.86c0.04,0,0.07,0,0.11,0c6.26,0.14,11.39,4.97,16.36,9.63c3.3,3.1,7.4,6.95,9.85,6.95c4.49,0,8.28-4.51,8.28-9.84
		l0-3.81c0-7.41-6.08-13.44-13.54-13.44H76c-7.47,0-13.54,6.03-13.54,13.44v3.81c0,5.34,3.79,9.84,8.28,9.84
		c2.45,0,6.54-3.85,9.84-6.95c4.97-4.67,10.1-9.5,16.36-9.64c0.07,0,0.15,0,0.22,0c6.25,0.14,11.39,4.97,16.36,9.64
		c3.3,3.1,7.4,6.95,9.85,6.95h0.31c2.45,0,6.56-3.86,9.85-6.96c4.96-4.67,10.1-9.49,16.35-9.63c0.07,0,0.15,0,0.22,0
		c6.26,0.14,11.39,4.97,16.36,9.64c3.29,3.1,7.39,6.95,9.84,6.95h0.32c2.45,0,6.54-3.85,9.84-6.95c4.97-4.67,10.1-9.5,16.36-9.64
		C202.87,123.86,202.91,123.86,202.94,123.86z"/>
	<path class="st0" d="M225.68,196.55H74.32c-2.74,0-4.96-2.22-4.96-4.96v-46.68c0-2.74,2.22-4.96,4.96-4.96s4.96,2.22,4.96,4.96
		v41.72h141.45v-41.73c0-2.74,2.22-4.96,4.96-4.96s4.96,2.22,4.96,4.96v46.69C230.64,194.33,228.42,196.55,225.68,196.55z"/>
</g>
</svg>
