<?xml version="1.0" encoding="utf-8"?>
<!-- Generator: Adobe Illustrator 24.0.1, SVG Export Plug-In . SVG Version: 6.00 Build 0)  -->
<svg version="1.1" id="Layer_1" xmlns="http://www.w3.org/2000/svg" xmlns:xlink="http://www.w3.org/1999/xlink" x="0px" y="0px"
	 viewBox="0 0 300 300" style="enable-background:new 0 0 300 300;" xml:space="preserve">
<style type="text/css">
	
		.st0{fill-rule:evenodd;clip-rule:evenodd;fill:none;stroke:#808080;stroke-width:9.8951;stroke-linecap:round;stroke-linejoin:round;stroke-miterlimit:10;}
</style>
<g>
	<path class="st0" d="M45.56,145.21c8.7,0,17.4-16.56,26.11-16.56c8.7,0,17.41,16.56,26.12,16.56c8.7,0,17.4-16.56,26.1-16.56
		c8.71,0,17.41,16.56,26.12,16.56c8.7,0,17.41-16.56,26.11-16.56c8.7,0,17.4,16.56,26.1,16.56s17.41-16.56,26.11-16.56
		c8.7,0,17.41,16.56,26.12,16.56c7.17,0,13.05-6.66,13.05-14.77v-4.05c0-10.11-8.2-18.36-18.25-18.36H50.75
		c-10.05,0-18.25,8.25-18.25,18.36v4.05C32.5,138.57,38.37,145.21,45.56,145.21L45.56,145.21z"/>
	<path class="st0" d="M254.56,144.65"/>
	<line class="st0" x1="254.56" y1="144.65" x2="254.56" y2="144.65"/>
	<path class="st0" d="M250.27,144.65v34.72c0,6.95-5.64,12.59-12.59,12.59H61.43c-6.95,0-12.59-5.64-12.59-12.59v-34.68"/>
</g>
</svg>
