<?xml version="1.0" encoding="utf-8"?>
<!-- Generator: Adobe Illustrator 24.0.1, SVG Export Plug-In . SVG Version: 6.00 Build 0)  -->
<svg version="1.1" id="Layer_1" xmlns="http://www.w3.org/2000/svg" xmlns:xlink="http://www.w3.org/1999/xlink" x="0px" y="0px"
	 viewBox="0 0 300 300" style="enable-background:new 0 0 300 300;" xml:space="preserve">
<style type="text/css">
	.st0{fill:#808080;}
</style>
<g>
	<path class="st0" d="M264.79,195.83H35.21c-9.45,0-17.13-7.69-17.13-17.13v-33.88c0-2.67,2.16-4.83,4.83-4.83s4.83,2.16,4.83,4.83
		v33.88c0,4.12,3.35,7.47,7.47,7.47h229.57c4.12,0,7.47-3.35,7.47-7.47v-33.92c0-2.67,2.16-4.83,4.83-4.83
		c2.67,0,4.83,2.16,4.83,4.83v33.92C281.92,188.14,274.23,195.83,264.79,195.83z"/>
	<path class="st0" d="M277.42,150.16c-6.18,0-11.22-4.79-16.09-9.42c-3.17-3.01-7.11-6.76-9.43-6.76c-2.32,0-6.26,3.75-9.42,6.76
		c-4.87,4.63-9.91,9.42-16.09,9.42c-6.18,0-11.22-4.79-16.08-9.42c-3.11-2.96-6.96-6.62-9.29-6.75c-2.33,0.13-6.19,3.8-9.29,6.75
		c-4.87,4.63-9.91,9.42-16.09,9.42c-0.08,0-0.17,0-0.25,0c-6.18,0-11.22-4.79-16.08-9.42c-3.11-2.95-6.96-6.62-9.3-6.75
		c-2.34,0.14-6.19,3.8-9.29,6.75c-4.87,4.63-9.9,9.42-16.08,9.42c-0.08,0-0.17,0-0.25,0c-6.19,0-11.22-4.79-16.09-9.42
		c-3.11-2.96-6.96-6.62-9.3-6.75c-2.33,0.13-6.18,3.8-9.29,6.75c-4.87,4.63-9.9,9.42-16.08,9.42c-6.19,0-11.22-4.79-16.09-9.42
		c-3.16-3.01-7.1-6.76-9.42-6.76c-2.32,0-6.26,3.75-9.42,6.76c-4.87,4.63-9.9,9.42-16.08,9.42c-9.7,0-17.59-8.64-17.59-19.26v-3.95
		c0-12.55,10.17-22.77,22.66-22.77h244.67c12.5,0,22.66,10.21,22.66,22.77v3.95C295,141.52,287.11,150.16,277.42,150.16z
		 M251.9,124.32c6.18,0,11.22,4.79,16.09,9.42c3.17,3.01,7.11,6.76,9.43,6.76c4.29,0,7.91-4.4,7.91-9.6v-3.95
		c0-7.22-5.83-13.1-13-13.1H27.66c-7.17,0-13,5.88-13,13.1v3.95c0,5.2,3.63,9.6,7.93,9.6c2.32,0,6.26-3.75,9.42-6.75
		c4.87-4.63,9.9-9.42,16.09-9.42c6.18,0,11.22,4.79,16.08,9.42c3.17,3.01,7.11,6.76,9.43,6.76c2.32,0,6.25-3.75,9.41-6.76
		c4.68-4.46,9.52-9.06,15.38-9.4c0.19-0.02,0.38-0.02,0.57-0.02c0.04,0,0.08,0,0.12,0c6.19,0,11.22,4.79,16.09,9.42
		c3.11,2.96,6.96,6.62,9.3,6.75c2.33-0.13,6.18-3.8,9.29-6.75c4.9-4.66,9.93-9.48,16.21-9.42c0.04,0,0.09,0,0.13,0
		c6.18,0,11.22,4.79,16.08,9.42c3.11,2.96,6.96,6.62,9.29,6.75c2.33-0.13,6.19-3.8,9.29-6.75c4.87-4.63,9.91-9.42,16.09-9.42
		c0.08,0,0.17,0,0.25,0c0.15,0,0.3,0.01,0.45,0.02c5.86,0.35,10.7,4.95,15.38,9.4c3.16,3.01,7.1,6.76,9.42,6.76
		c2.32,0,6.26-3.75,9.43-6.76C240.69,129.1,245.72,124.32,251.9,124.32z"/>
</g>
</svg>
