<?xml version="1.0" encoding="utf-8"?>
<!-- Generator: Adobe Illustrator 24.0.1, SVG Export Plug-In . SVG Version: 6.00 Build 0)  -->
<svg version="1.1" id="Layer_1" xmlns="http://www.w3.org/2000/svg" xmlns:xlink="http://www.w3.org/1999/xlink" x="0px" y="0px"
	 viewBox="0 0 300 300" style="enable-background:new 0 0 300 300;" xml:space="preserve">
<style type="text/css">
	.st0{fill:#808080;}
</style>
<g>
	<path class="st0" d="M204.01,154.34c-6.18,0-10.99-4.8-15.64-9.44c-3.13-3.12-7.02-7-9.59-7c-4.76,0-9.46,4.1-14,8.07
		c-4.86,4.24-9.44,8.24-15.07,8.24c-5.72,0-11.22-4.7-17.03-9.67c-2.96-2.53-7.92-6.77-9.71-6.86c-2.54,0-6.73,3.88-10.11,7
		c-5.13,4.75-10.44,9.65-16.89,9.65c-10.19,0-18.48-8.9-18.48-19.83v-3.83c0-12.92,10.7-23.43,23.85-23.43h97.29
		c13.16,0,23.86,10.51,23.86,23.43v3.83C222.5,145.45,214.21,154.34,204.01,154.34z M178.79,127.95c6.68,0,11.96,5.26,16.61,9.91
		c2.92,2.91,6.55,6.53,8.62,6.53c4.63,0,8.53-4.52,8.53-9.88v-3.83c0-7.43-6.24-13.48-13.91-13.48h-97.29
		c-7.66,0-13.9,6.05-13.9,13.48v3.83c0,5.45,3.82,9.88,8.53,9.88c2.55,0,6.75-3.89,10.13-7.01c5.13-4.74,10.43-9.65,16.87-9.65
		c5.34,0,10.6,4.49,16.16,9.25c3.19,2.72,8.52,7.28,10.57,7.28c1.9,0,5.58-3.21,8.53-5.79C163.61,133.79,170.3,127.95,178.79,127.95
		z"/>
	<path class="st0" d="M200.64,192.74H99.36c-2.75,0-4.98-2.23-4.98-4.98v-39.11c0-2.75,2.23-4.98,4.98-4.98s4.98,2.23,4.98,4.98
		v34.14h91.34v-34.14c0-2.75,2.23-4.98,4.98-4.98s4.98,2.23,4.98,4.98v39.12C205.62,190.52,203.39,192.74,200.64,192.74z"/>
</g>
</svg>
