<?xml version="1.0" encoding="utf-8"?>
<!-- Generator: Adobe Illustrator 24.0.1, SVG Export Plug-In . SVG Version: 6.00 Build 0)  -->
<svg version="1.1" id="Layer_1" xmlns="http://www.w3.org/2000/svg" xmlns:xlink="http://www.w3.org/1999/xlink" x="0px" y="0px"
	 viewBox="0 0 300 300" style="enable-background:new 0 0 300 300;" xml:space="preserve">
<style type="text/css">
	.st0{fill:#808080;}
</style>
<g>
	<path class="st0" d="M200.1,229.85H99.9c-1.46,0-2.85-0.66-3.77-1.8s-1.27-2.64-0.95-4.07c0.66-3.02,6.83-29.5,19.26-29.5h71.13
		c12.43,0,18.6,26.49,19.26,29.51c0.31,1.43-0.04,2.92-0.96,4.06C202.95,229.19,201.57,229.85,200.1,229.85z M106.18,220.19h87.65
		c-2.7-8.66-6.54-15.33-8.38-16.04h-70.9C112.72,204.86,108.87,211.52,106.18,220.19z M185.39,204.13L185.39,204.13L185.39,204.13z
		 M114.61,204.13L114.61,204.13z"/>
	<path class="st0" d="M163.85,204.15h-27.7c-1.78,0-3.42-0.98-4.26-2.55c-0.84-1.57-0.75-3.48,0.24-4.96
		c1.26-1.89,3.32-10.87,3.85-27.83c0.46-14.94-0.63-26.24-1.89-29.29c-5.76-13.91-22.78-26.51-45.52-33.71
		c-2.27-0.72-3.68-2.99-3.32-5.35c0.36-2.36,2.39-4.1,4.78-4.1h119.95c2.38,0,4.41,1.74,4.78,4.1c0.36,2.36-1.05,4.63-3.32,5.35
		c-22.74,7.19-39.75,19.8-45.52,33.71l0,0c-1.26,3.05-2.36,14.35-1.89,29.29c0.53,16.97,2.59,25.94,3.85,27.83
		c0.99,1.48,1.08,3.39,0.24,4.96C167.27,203.17,165.63,204.15,163.85,204.15z M142.98,194.48h14.04
		c-1.82-7.78-2.44-18.48-2.66-25.38c-0.38-12.12,0.12-27.23,2.62-33.29l0,0c4.75-11.47,15.05-21.79,29.36-29.78h-72.69
		c14.3,7.99,24.61,18.31,29.36,29.78c2.51,6.05,3,21.16,2.62,33.29C145.42,176,144.8,186.7,142.98,194.48z M161.45,137.67
		L161.45,137.67L161.45,137.67z"/>
	<path class="st0" d="M275.1,106.03H24.9c-5.33,0-9.95-4.35-14.13-13.29C8.1,87.04,6,80.22,5.1,75.98c-0.3-1.43,0.06-2.91,0.97-4.04
		c0.92-1.13,2.3-1.79,3.75-1.79h280.33c1.46,0,2.84,0.66,3.76,1.79c0.92,1.13,1.28,2.62,0.97,4.04c-0.9,4.24-3,11.06-5.66,16.77
		C285.05,101.69,280.43,106.03,275.1,106.03z M16.12,79.81c2.57,8.13,6.61,15.98,8.87,16.56l250.05-0.01
		c2.27-0.64,6.29-8.46,8.84-16.56H16.12z"/>
</g>
</svg>
