<?xml version="1.0" encoding="utf-8"?>
<!-- Generator: Adobe Illustrator 24.0.1, SVG Export Plug-In . SVG Version: 6.00 Build 0)  -->
<svg version="1.1" id="Layer_1" xmlns="http://www.w3.org/2000/svg" xmlns:xlink="http://www.w3.org/1999/xlink" x="0px" y="0px"
	 viewBox="0 0 300 300" style="enable-background:new 0 0 300 300;" xml:space="preserve">
<style type="text/css">
	.st0{fill:#808080;}
</style>
<g>
	<path class="st0" d="M198.65,249.4c-7.75,0-15.27-2.29-19.43-3.82c-20.38-7.49-44.78-25.35-72.52-53.09
		c-27.93-27.93-45.9-52.21-53.41-72.16c-8.27-21.99-1.65-33.13,3.04-37.82l15.96-15.96c4.01-4.01,9.57-6.12,15.23-5.76
		c5.67,0.35,10.92,3.12,14.4,7.6l19.45,24.98c5.62,7.22,5.58,17.27-0.09,24.44l-4.39,5.55c-3.19,4.03-2.85,9.82,0.79,13.45
		l44.68,44.69c3.64,3.64,9.42,3.97,13.46,0.79l5.55-4.39c7.18-5.67,17.23-5.7,24.44-0.09l24.98,19.44c4.48,3.49,7.25,8.74,7.6,14.4
		c0.35,5.67-1.75,11.22-5.76,15.23l-15.96,15.96h0h0C211.73,247.81,205.11,249.4,198.65,249.4z M86.26,70.42
		c-2.7,0-5.21,1.04-7.14,2.97L63.16,89.35c-10.6,10.6-3.76,42.18,50.37,96.31c26.37,26.37,50.23,43.95,69.02,50.85
		c12.27,4.51,22.48,4.33,27.29-0.48h0l15.96-15.96c2.09-2.09,3.13-4.86,2.95-7.8c-0.18-2.94-1.57-5.56-3.89-7.37l-24.98-19.44
		c-3.69-2.88-8.84-2.85-12.51,0.05l-5.55,4.39c-7.88,6.23-19.18,5.57-26.28-1.54l-44.69-44.69c-7.1-7.1-7.76-18.4-1.54-26.28
		l4.39-5.55c2.9-3.67,2.92-8.82,0.05-12.51L94.29,74.34c-1.81-2.33-4.43-3.71-7.37-3.89C86.7,70.43,86.48,70.42,86.26,70.42z"/>
	<path class="st0" d="M151.06,294.5c-0.53,0-1.06,0-1.6-0.01c-79.91,0-144.96-65.05-144.96-145s65.05-145,145-145
		c79.95,0,145,65.05,145,145c0,26.67-7.31,52.74-21.13,75.4c-1.39,2.28-4.37,3-6.64,1.61c-2.28-1.39-3-4.36-1.61-6.64
		c12.9-21.15,19.72-45.48,19.72-70.37c0-74.62-60.71-135.33-135.33-135.33S14.17,74.87,14.17,149.5
		c0,74.62,60.71,135.33,135.33,135.33c0.41,0,0.83,0,1.24,0c27.76,0,61.41-7.75,74.19-29.6c3.4-5.81,4.28-11.56,2.3-15.01
		c-1.21-2.11-3.48-3.17-6.75-3.17c-2.67,0-4.83-2.16-4.83-4.83s2.16-4.83,4.83-4.83c6.79,0,12.16,2.85,15.13,8.03
		c3.75,6.54,2.88,15.78-2.34,24.7C228.53,268.23,208.65,294.5,151.06,294.5z"/>
</g>
</svg>
